<svg width="1776" height="1117" viewBox="0 0 1776 1117" fill="none" xmlns="http://www.w3.org/2000/svg">
<g clip-path="url(#clip0_210_1168)">
<g style="mix-blend-mode:hard-light" opacity="0.25">
<mask id="mask0_210_1168" style="mask-type:alpha" maskUnits="userSpaceOnUse" x="-476" y="-363" width="2561" height="1901">
<mask id="mask1_210_1168" style="mask-type:luminance" maskUnits="userSpaceOnUse" x="-476" y="-363" width="2561" height="1901">
<path d="M-164.375 1537.04L2084.22 1038.73L1773.59 -362.989L-475.011 135.324L-164.375 1537.04Z" fill="white"/>
</mask>
<g mask="url(#mask1_210_1168)">
<path d="M1762.22 965.444C1762.35 965.416 1762.47 965.388 1762.62 965.486L1896.78 1007.84C1897.05 1007.91 1897.23 1008.13 1897.26 1008.26L1927.72 1145.68C1927.77 1145.93 1927.7 1146.21 1927.45 1146.26L1823.75 1241.33C1823.53 1241.51 1823.28 1241.57 1823.13 1241.47L1688.98 1199.11C1688.7 1199.04 1688.52 1198.82 1688.49 1198.7L1658.04 1061.27C1657.98 1061.02 1658.05 1060.75 1658.3 1060.69L1762 965.624C1761.97 965.499 1762.1 965.472 1762.22 965.444ZM1895.97 1008.94L1762.52 966.818L1659.37 1061.37L1689.66 1198.05L1823.1 1240.17L1926.26 1145.61L1895.97 1008.94Z" fill="black"/>
<path d="M1762.23 965.441C1762.6 965.358 1762.91 965.553 1762.99 965.927L1823.87 1240.65C1823.95 1241.02 1823.76 1241.33 1823.38 1241.41C1823.01 1241.49 1822.7 1241.3 1822.62 1240.93L1761.74 966.204C1761.53 965.857 1761.85 965.524 1762.23 965.441Z" fill="black"/>
<path d="M1658.4 1060.53C1658.52 1060.51 1658.65 1060.48 1658.8 1060.58L1927.23 1145.26C1927.51 1145.33 1927.75 1145.8 1927.68 1146.08C1927.61 1146.36 1927.14 1146.59 1926.86 1146.52L1658.43 1061.84C1658.15 1061.77 1657.91 1061.3 1657.98 1061.02C1658.05 1060.74 1658.15 1060.59 1658.4 1060.53Z" fill="black"/>
<path d="M1896.38 1007.8C1896.63 1007.74 1896.78 1007.84 1896.96 1008.06C1897.14 1008.29 1897.25 1008.79 1896.9 1008.99L1689.38 1199.16C1689.16 1199.34 1688.66 1199.45 1688.45 1199.1C1688.27 1198.88 1688.16 1198.38 1688.51 1198.17L1896.03 1008.01C1896.13 1007.86 1896.25 1007.83 1896.38 1007.8Z" fill="black"/>
<path d="M1524.25 1018.18C1524.37 1018.15 1524.5 1018.13 1524.65 1018.22L1658.81 1060.58C1659.08 1060.65 1659.26 1060.87 1659.29 1061L1689.75 1198.42C1689.8 1198.67 1689.73 1198.95 1689.48 1199L1585.78 1294.07C1585.56 1294.25 1585.31 1294.3 1585.16 1294.21L1451 1251.85C1450.73 1251.78 1450.55 1251.56 1450.52 1251.43L1420.06 1114.01C1420.01 1113.76 1420.08 1113.48 1420.33 1113.43L1524.03 1018.36C1524 1018.24 1524.12 1018.21 1524.25 1018.18ZM1658 1061.68L1524.55 1019.56L1421.4 1114.11L1451.69 1250.78L1585.13 1292.9L1688.29 1198.35L1658 1061.68Z" fill="black"/>
<path d="M1524.25 1018.18C1524.63 1018.1 1524.93 1018.3 1525.01 1018.67L1585.9 1293.39C1585.98 1293.77 1585.78 1294.07 1585.41 1294.15C1585.04 1294.24 1584.73 1294.04 1584.65 1293.67L1523.77 1018.95C1523.68 1018.57 1523.88 1018.27 1524.25 1018.18Z" fill="black"/>
<path d="M1420.43 1113.28C1420.55 1113.25 1420.68 1113.22 1420.83 1113.32L1689.26 1198C1689.54 1198.07 1689.78 1198.54 1689.71 1198.82C1689.64 1199.1 1689.16 1199.34 1688.89 1199.27L1420.46 1114.58C1420.18 1114.51 1419.94 1114.04 1420.01 1113.76C1420.08 1113.48 1420.3 1113.3 1420.43 1113.28Z" fill="black"/>
<path d="M1658.4 1060.54C1658.65 1060.48 1658.81 1060.58 1658.99 1060.8C1659.17 1061.02 1659.28 1061.52 1658.93 1061.73L1451.41 1251.89C1451.19 1252.07 1450.69 1252.18 1450.48 1251.84C1450.3 1251.61 1450.19 1251.11 1450.54 1250.91L1658.06 1060.75C1658.15 1060.59 1658.28 1060.57 1658.4 1060.54Z" fill="black"/>
<path d="M1286.27 1070.91C1286.4 1070.88 1286.52 1070.86 1286.68 1070.95L1420.83 1113.31C1421.11 1113.38 1421.29 1113.6 1421.31 1113.73L1451.77 1251.15C1451.82 1251.4 1451.76 1251.68 1451.51 1251.73L1347.81 1346.8C1347.58 1346.98 1347.33 1347.03 1347.18 1346.94L1213.03 1304.58C1212.75 1304.51 1212.57 1304.29 1212.54 1304.16L1182.09 1166.74C1182.03 1166.49 1182.1 1166.21 1182.35 1166.16L1286.05 1071.09C1286.02 1070.97 1286.15 1070.94 1286.27 1070.91ZM1420.02 1114.4L1286.58 1072.28L1183.42 1166.84L1213.71 1303.51L1347.16 1345.63L1450.31 1251.08L1420.02 1114.4Z" fill="black"/>
<path d="M1286.27 1070.91C1286.65 1070.83 1286.95 1071.02 1287.03 1071.4L1347.92 1346.12C1348 1346.49 1347.8 1346.8 1347.43 1346.88C1347.06 1346.96 1346.75 1346.77 1346.67 1346.39L1285.79 1071.67C1285.7 1071.3 1285.9 1070.99 1286.27 1070.91Z" fill="black"/>
<path d="M1182.57 1165.98C1182.7 1165.95 1182.82 1165.92 1182.97 1166.02L1451.4 1250.7C1451.68 1250.77 1451.92 1251.24 1451.85 1251.52C1451.78 1251.8 1451.31 1252.04 1451.03 1251.97L1182.6 1167.28C1182.32 1167.21 1182.08 1166.74 1182.15 1166.46C1182.1 1166.21 1182.32 1166.03 1182.57 1165.98Z" fill="black"/>
<path d="M1420.42 1113.27C1420.67 1113.21 1420.83 1113.31 1421.01 1113.53C1421.19 1113.75 1421.3 1114.25 1420.95 1114.46L1213.43 1304.62C1213.21 1304.8 1212.71 1304.91 1212.5 1304.57C1212.32 1304.34 1212.21 1303.84 1212.56 1303.64L1420.08 1113.48C1420.3 1113.29 1420.42 1113.27 1420.42 1113.27Z" fill="black"/>
<path d="M1048.3 1123.66C1048.42 1123.63 1048.55 1123.6 1048.7 1123.7L1182.85 1166.06C1183.13 1166.13 1183.31 1166.35 1183.34 1166.47L1213.79 1303.9C1213.85 1304.15 1213.78 1304.42 1213.53 1304.48L1109.83 1399.55C1109.61 1399.73 1109.36 1399.78 1109.2 1399.68L975.052 1357.33C974.774 1357.26 974.594 1357.04 974.566 1356.91L944.112 1219.49C944.057 1219.24 944.126 1218.96 944.376 1218.9L1048.07 1123.84C1048.17 1123.69 1048.3 1123.66 1048.3 1123.66ZM1182.17 1167.12L1048.73 1125L945.569 1219.56L975.857 1356.23L1109.3 1398.35L1212.46 1303.8L1182.17 1167.12Z" fill="black"/>
<path d="M1835.47 732.943C1835.59 732.915 1835.72 732.887 1835.87 732.985L1970.02 775.341C1970.3 775.411 1970.48 775.633 1970.51 775.758L2000.96 913.181C2001.02 913.431 2000.95 913.709 2000.7 913.764L1897 1008.83C1896.78 1009.01 1896.53 1009.07 1896.38 1008.97L1762.22 966.613C1761.94 966.543 1761.76 966.321 1761.74 966.196L1731.28 828.773C1731.23 828.523 1731.3 828.245 1731.55 828.19L1835.24 733.123C1835.22 732.998 1835.34 732.971 1835.47 732.943ZM1969.22 776.437L1835.77 734.317L1732.61 828.871L1762.9 965.544L1896.35 1007.66L1999.51 913.111L1969.22 776.437Z" fill="black"/>
<path d="M1731.77 828.007C1731.9 827.98 1732.02 827.952 1732.18 828.049L2000.61 912.734C2000.88 912.804 2001.12 913.276 2001.05 913.553C2000.98 913.831 2000.51 914.067 2000.23 913.997L1731.8 829.312C1731.52 829.242 1731.29 828.77 1731.36 828.493C1731.3 828.243 1731.52 828.063 1731.77 828.007Z" fill="black"/>
<path d="M1969.62 775.299C1969.87 775.244 1970.02 775.341 1970.2 775.563C1970.39 775.785 1970.5 776.285 1970.15 776.493L1762.63 966.655C1762.4 966.835 1761.9 966.946 1761.7 966.598C1761.49 966.251 1761.41 965.877 1761.75 965.669L1969.28 775.507C1969.5 775.327 1969.5 775.327 1969.62 775.299Z" fill="black"/>
<path d="M1597.48 785.681C1597.61 785.654 1597.73 785.626 1597.89 785.723L1732.04 828.079C1732.32 828.149 1732.5 828.371 1732.52 828.496L1762.98 965.919C1763.03 966.169 1762.96 966.447 1762.71 966.502L1659.02 1061.57C1658.79 1061.75 1658.54 1061.8 1658.39 1061.71L1524.24 1019.35C1523.96 1019.28 1523.78 1019.06 1523.75 1018.93L1493.3 881.511C1493.24 881.261 1493.31 880.984 1493.56 880.928L1597.26 785.861C1597.23 785.737 1597.36 785.709 1597.48 785.681ZM1731.23 829.175L1597.79 787.055L1494.63 881.609L1524.92 1018.28L1658.36 1060.4L1761.52 965.849L1731.23 829.175Z" fill="black"/>
<path d="M1597.49 785.684C1597.86 785.601 1598.17 785.795 1598.25 786.17L1659.13 1060.89C1659.21 1061.27 1659.02 1061.57 1658.64 1061.65C1658.27 1061.74 1657.96 1061.54 1657.88 1061.17L1597 786.447C1596.92 786.072 1597.11 785.767 1597.49 785.684Z" fill="black"/>
<path d="M1493.79 880.75C1493.91 880.723 1494.04 880.695 1494.19 880.792L1762.62 965.477C1762.9 965.547 1763.14 966.019 1763.07 966.296C1763 966.574 1762.52 966.81 1762.25 966.74L1493.82 882.055C1493.54 881.986 1493.3 881.513 1493.37 881.236C1493.32 880.986 1493.54 880.806 1493.79 880.75Z" fill="black"/>
<path d="M1731.76 828.013C1732.01 827.958 1732.17 828.055 1732.35 828.277C1732.53 828.499 1732.64 828.999 1732.29 829.207L1524.77 1019.37C1524.55 1019.55 1524.05 1019.66 1523.84 1019.31C1523.66 1019.09 1523.55 1018.59 1523.9 1018.38L1731.42 828.221C1731.51 828.069 1731.64 828.041 1731.76 828.013Z" fill="black"/>
<path d="M1359.52 838.42C1359.64 838.393 1359.77 838.365 1359.92 838.462L1494.07 880.819C1494.35 880.888 1494.53 881.11 1494.56 881.235L1525.01 1018.66C1525.07 1018.91 1525 1019.19 1524.75 1019.24L1421.05 1114.31C1420.83 1114.49 1420.58 1114.54 1420.42 1114.45L1286.27 1072.09C1285.99 1072.02 1285.81 1071.8 1285.79 1071.67L1255.33 934.25C1255.28 934 1255.35 933.723 1255.6 933.668L1359.29 838.601C1359.39 838.448 1359.52 838.42 1359.52 838.42ZM1493.39 881.887L1359.82 839.795L1256.66 934.348L1286.95 1071.02L1420.4 1113.14L1523.55 1018.59L1493.27 881.915L1493.39 881.887Z" fill="black"/>
<path d="M1359.51 838.423C1359.89 838.34 1360.19 838.535 1360.28 838.909L1421.16 1113.63C1421.24 1114.01 1421.05 1114.31 1420.67 1114.39C1420.3 1114.48 1419.99 1114.28 1419.91 1113.91L1359.03 839.186C1358.95 838.811 1359.26 838.478 1359.51 838.423Z" fill="black"/>
<path d="M1255.82 933.49C1255.94 933.462 1256.07 933.434 1256.22 933.532L1524.65 1018.22C1524.93 1018.29 1525.16 1018.76 1525.09 1019.04C1525.03 1019.31 1524.55 1019.55 1524.28 1019.48L1255.84 934.794C1255.57 934.725 1255.33 934.253 1255.4 933.975C1255.47 933.698 1255.57 933.545 1255.82 933.49Z" fill="black"/>
<path d="M1493.79 880.752C1494.04 880.697 1494.2 880.794 1494.38 881.016C1494.56 881.239 1494.67 881.738 1494.32 881.946L1286.8 1072.11C1286.58 1072.29 1286.08 1072.4 1285.87 1072.05C1285.69 1071.83 1285.58 1071.33 1285.92 1071.12L1493.45 880.96C1493.54 880.808 1493.67 880.78 1493.79 880.752Z" fill="black"/>
<path d="M1121.66 891.132C1121.78 891.105 1121.91 891.077 1122.06 891.174L1256.22 933.531C1256.49 933.6 1256.67 933.822 1256.7 933.947L1287.16 1071.37C1287.21 1071.62 1287.14 1071.9 1286.89 1071.95L1183.19 1167.02C1182.97 1167.2 1182.72 1167.26 1182.57 1167.16L1048.42 1124.8C1048.14 1124.73 1047.96 1124.51 1047.93 1124.39L1017.48 986.962C1017.42 986.712 1017.49 986.435 1017.74 986.379L1121.44 891.313C1121.41 891.188 1121.54 891.16 1121.66 891.132ZM1255.41 934.627L1121.96 892.507L1018.81 987.06L1049.1 1123.73L1182.54 1165.85L1285.7 1071.3L1255.41 934.627Z" fill="black"/>
<path d="M1121.66 891.131C1122.04 891.048 1122.34 891.243 1122.43 891.617L1183.31 1166.34C1183.39 1166.71 1183.2 1167.02 1182.82 1167.1C1182.45 1167.18 1182.14 1166.99 1182.06 1166.62L1121.18 891.894C1121.09 891.519 1121.29 891.214 1121.66 891.131Z" fill="black"/>
<path d="M1017.84 986.223C1017.96 986.195 1018.09 986.168 1018.24 986.265L1286.67 1070.95C1286.95 1071.02 1287.19 1071.49 1287.12 1071.77C1287.05 1072.05 1286.57 1072.28 1286.3 1072.21L1017.87 987.528C1017.59 987.458 1017.35 986.986 1017.42 986.709C1017.49 986.431 1017.71 986.251 1017.84 986.223Z" fill="black"/>
<path d="M1255.82 933.489C1256.06 933.433 1256.22 933.531 1256.4 933.753C1256.58 933.975 1256.69 934.475 1256.34 934.683L1048.82 1124.84C1048.6 1125.02 1048.1 1125.13 1047.89 1124.79C1047.71 1124.57 1047.6 1124.07 1047.95 1123.86L1255.47 933.697C1255.57 933.544 1255.69 933.516 1255.82 933.489Z" fill="black"/>
<path d="M883.68 943.877C883.805 943.85 883.93 943.822 884.083 943.919L1018.24 986.276C1018.51 986.345 1018.69 986.567 1018.72 986.692L1049.18 1124.12C1049.23 1124.37 1049.16 1124.64 1048.91 1124.7L945.213 1219.77C944.991 1219.95 944.741 1220 944.589 1219.9L810.436 1177.55C810.158 1177.48 809.978 1177.26 809.95 1177.13L779.496 1039.71C779.44 1039.46 779.51 1039.18 779.76 1039.12L883.458 944.058C883.431 943.933 883.556 943.905 883.68 943.877ZM1017.43 987.372L883.985 945.252L780.828 1039.81L811.116 1176.48L944.562 1218.6L1047.72 1124.05L1017.43 987.372Z" fill="black"/>
<path d="M883.682 943.881C884.057 943.798 884.362 943.993 884.446 944.367L945.327 1219.09C945.41 1219.46 945.215 1219.77 944.841 1219.85C944.466 1219.93 944.161 1219.74 944.077 1219.37L883.196 944.644C883.113 944.269 883.308 943.964 883.682 943.881Z" fill="black"/>
<path d="M779.982 1038.94C780.107 1038.92 780.232 1038.89 780.384 1038.98L1048.82 1123.67C1049.09 1123.74 1049.33 1124.21 1049.26 1124.49C1049.19 1124.77 1048.72 1125 1048.44 1124.93L780.009 1040.25C779.731 1040.18 779.496 1039.71 779.565 1039.43C779.51 1039.18 779.732 1039 779.982 1038.94Z" fill="black"/>
<path d="M1017.84 986.235C1018.09 986.179 1018.24 986.277 1018.42 986.499C1018.6 986.721 1018.71 987.221 1018.36 987.429L810.84 1177.59C810.618 1177.77 810.118 1177.88 809.91 1177.53C809.73 1177.31 809.619 1176.81 809.966 1176.6L1017.49 986.443C1017.71 986.262 1017.84 986.235 1017.84 986.235Z" fill="black"/>
<path d="M645.708 996.609C645.833 996.581 645.958 996.554 646.11 996.651L780.263 1039.01C780.541 1039.08 780.721 1039.3 780.749 1039.42L811.203 1176.85C811.259 1177.1 811.189 1177.37 810.939 1177.43L707.241 1272.5C707.019 1272.68 706.769 1272.73 706.616 1272.64L572.463 1230.28C572.186 1230.21 572.005 1229.99 571.978 1229.86L541.523 1092.44C541.468 1092.19 541.537 1091.91 541.787 1091.86L645.486 996.789C645.583 996.637 645.583 996.637 645.708 996.609ZM779.583 1040.08L646.012 997.983L542.855 1092.54L573.144 1229.21L706.589 1271.33L809.746 1176.78L779.458 1040.1L779.583 1040.08Z" fill="black"/>
<path d="M645.71 996.613C646.085 996.53 646.39 996.724 646.473 997.099L707.354 1271.82C707.437 1272.2 707.243 1272.5 706.868 1272.58C706.493 1272.67 706.188 1272.47 706.105 1272.1L645.224 997.376C645.141 997.001 645.46 996.668 645.71 996.613Z" fill="black"/>
<path d="M542.009 1091.68C542.134 1091.65 542.259 1091.62 542.412 1091.72L810.843 1176.41C811.12 1176.48 811.356 1176.95 811.286 1177.23C811.217 1177.5 810.745 1177.74 810.467 1177.67L542.036 1092.98C541.759 1092.91 541.523 1092.44 541.592 1092.16C541.537 1091.91 541.759 1091.73 542.009 1091.68Z" fill="black"/>
<path d="M779.985 1038.94C780.235 1038.89 780.387 1038.98 780.568 1039.2C780.748 1039.43 780.859 1039.93 780.512 1040.13L572.99 1230.3C572.767 1230.48 572.268 1230.59 572.06 1230.24C571.879 1230.02 571.769 1229.52 572.116 1229.31L779.638 1039.15C779.735 1039 779.86 1038.97 779.985 1038.94Z" fill="black"/>
<path d="M1670.86 553.178C1670.99 553.151 1671.11 553.123 1671.26 553.22L1805.42 595.576C1805.69 595.646 1805.87 595.868 1805.9 595.993L1836.36 733.416C1836.41 733.666 1836.34 733.944 1836.09 733.999L1732.39 829.066C1732.17 829.246 1731.92 829.302 1731.77 829.204L1597.62 786.848C1597.34 786.778 1597.16 786.556 1597.13 786.431L1566.68 649.008C1566.62 648.758 1566.69 648.481 1566.94 648.425L1670.64 553.359C1670.64 553.359 1670.74 553.206 1670.86 553.178ZM1804.61 596.672L1671.17 554.552L1568.01 649.106L1598.3 785.78L1731.74 827.9L1834.9 733.346L1804.61 596.672Z" fill="black"/>
<path d="M1670.87 553.176C1671.24 553.093 1671.55 553.288 1671.63 553.663L1732.51 828.384C1732.59 828.759 1732.4 829.064 1732.02 829.147C1731.65 829.23 1731.34 829.036 1731.26 828.661L1670.41 554.064C1670.2 553.717 1670.49 553.26 1670.87 553.176Z" fill="black"/>
<path d="M1567.04 648.269C1567.17 648.241 1567.29 648.214 1567.44 648.311L1835.87 732.996C1836.15 733.066 1836.39 733.538 1836.32 733.815C1836.25 734.093 1835.78 734.328 1835.5 734.259L1567.07 649.574C1566.79 649.504 1566.55 649.032 1566.62 648.755C1566.69 648.477 1566.79 648.324 1567.04 648.269Z" fill="black"/>
<path d="M1805.02 595.536C1805.27 595.48 1805.42 595.577 1805.6 595.8C1805.78 596.022 1805.89 596.522 1805.54 596.73L1598.02 786.891C1597.8 787.071 1597.3 787.182 1597.09 786.835C1596.91 786.613 1596.8 786.113 1597.15 785.905L1804.67 595.744C1804.79 595.716 1804.89 595.563 1805.02 595.536Z" fill="black"/>
<path d="M1432.88 605.904C1433.01 605.876 1433.13 605.848 1433.29 605.946L1567.44 648.302C1567.72 648.372 1567.9 648.594 1567.93 648.719L1598.38 786.142C1598.43 786.392 1598.37 786.669 1598.12 786.725L1494.42 881.792C1494.19 881.972 1493.94 882.027 1493.79 881.93L1359.64 839.574C1359.36 839.504 1359.18 839.282 1359.15 839.157L1328.7 701.734C1328.64 701.484 1328.71 701.206 1328.96 701.151L1432.66 606.084C1432.66 606.084 1432.76 605.931 1432.88 605.904ZM1566.63 649.398L1433.19 607.278L1330.03 701.832L1360.32 838.505L1493.77 880.625L1596.92 786.072L1566.63 649.398Z" fill="black"/>
<path d="M1432.89 605.903C1433.26 605.82 1433.57 606.014 1433.65 606.389L1494.53 881.11C1494.61 881.485 1494.42 881.79 1494.04 881.873C1493.67 881.956 1493.36 881.762 1493.28 881.387L1432.43 606.791C1432.34 606.416 1432.51 605.986 1432.89 605.903Z" fill="black"/>
<path d="M1329.06 700.994C1329.19 700.966 1329.31 700.938 1329.47 701.035L1597.9 785.721C1598.17 785.79 1598.41 786.262 1598.34 786.54C1598.27 786.817 1597.8 787.053 1597.52 786.983L1329.09 702.298C1328.81 702.229 1328.58 701.757 1328.65 701.479C1328.72 701.202 1328.94 701.021 1329.06 700.994Z" fill="black"/>
<path d="M1567.04 648.26C1567.29 648.205 1567.44 648.302 1567.62 648.524C1567.8 648.746 1567.91 649.246 1567.57 649.454L1360.04 839.615C1359.82 839.796 1359.32 839.906 1359.11 839.559C1358.93 839.337 1358.82 838.837 1359.17 838.63L1566.69 648.468C1566.82 648.441 1566.91 648.288 1567.04 648.26Z" fill="black"/>
<path d="M1194.92 658.638C1195.04 658.611 1195.17 658.583 1195.32 658.68L1329.47 701.036C1329.75 701.106 1329.93 701.328 1329.96 701.453L1360.41 838.876C1360.47 839.126 1360.4 839.404 1360.15 839.459L1256.45 934.526C1256.23 934.706 1255.98 934.762 1255.82 934.664L1121.67 892.308C1121.39 892.238 1121.21 892.016 1121.19 891.891L1090.73 754.468C1090.68 754.218 1090.74 753.941 1090.99 753.885L1194.69 658.818C1194.69 658.818 1194.79 658.666 1194.92 658.638ZM1328.67 702.132L1195.22 660.012L1092.06 754.566L1122.35 891.24L1255.8 933.36L1358.95 838.806L1328.67 702.132Z" fill="black"/>
<path d="M1194.91 658.637C1195.29 658.554 1195.59 658.748 1195.68 659.123L1256.56 933.845C1256.64 934.22 1256.45 934.525 1256.07 934.608C1255.7 934.691 1255.39 934.496 1255.31 934.122L1194.45 659.525C1194.37 659.15 1194.54 658.72 1194.91 658.637Z" fill="black"/>
<path d="M1091.21 753.704C1091.34 753.676 1091.46 753.648 1091.62 753.745L1360.05 838.431C1360.32 838.5 1360.56 838.972 1360.49 839.25C1360.42 839.527 1359.95 839.763 1359.67 839.693L1091.24 755.008C1090.96 754.939 1090.73 754.467 1090.8 754.189C1090.74 753.939 1090.96 753.759 1091.21 753.704Z" fill="black"/>
<path d="M1329.07 700.996C1329.32 700.94 1329.47 701.037 1329.65 701.26C1329.83 701.482 1329.94 701.982 1329.59 702.19L1122.07 892.351C1121.85 892.531 1121.35 892.642 1121.14 892.295C1120.96 892.073 1120.85 891.573 1121.2 891.365L1328.72 701.204C1328.97 701.148 1329.07 700.996 1329.07 700.996Z" fill="black"/>
<path d="M956.933 711.38C957.058 711.353 957.183 711.325 957.335 711.422L1091.49 753.779C1091.77 753.848 1091.95 754.07 1091.97 754.195L1122.43 891.619C1122.48 891.868 1122.41 892.146 1122.16 892.201L1018.47 987.268C1018.24 987.449 1017.99 987.504 1017.84 987.407L883.688 945.05C883.411 944.981 883.23 944.758 883.203 944.634L852.748 807.21C852.693 806.96 852.762 806.683 853.012 806.627L956.711 711.561C956.836 711.533 956.933 711.38 956.933 711.38ZM1090.81 754.847L957.362 712.727L854.205 807.281L884.494 943.954L1017.94 986.074L1121.1 891.521L1090.81 754.847Z" fill="black"/>
<path d="M956.931 711.383C957.306 711.3 957.611 711.495 957.694 711.869L1018.57 986.591C1018.66 986.966 1018.46 987.271 1018.09 987.354C1017.71 987.437 1017.41 987.242 1017.33 986.868L956.472 712.271C956.389 711.896 956.681 711.438 956.931 711.383Z" fill="black"/>
<path d="M853.234 806.45C853.359 806.422 853.484 806.394 853.637 806.492L1122.07 891.177C1122.35 891.246 1122.58 891.718 1122.51 891.996C1122.44 892.273 1121.97 892.509 1121.69 892.439L853.261 807.754C852.984 807.685 852.748 807.213 852.818 806.935C852.887 806.658 852.984 806.505 853.234 806.45Z" fill="black"/>
<path d="M1091.21 753.711C1091.46 753.656 1091.61 753.753 1091.79 753.975C1091.97 754.198 1092.08 754.697 1091.74 754.905L884.215 945.067C883.993 945.247 883.493 945.358 883.285 945.011C883.104 944.788 882.994 944.289 883.341 944.081L1090.86 753.919C1090.99 753.892 1091.09 753.739 1091.21 753.711Z" fill="black"/>
<path d="M719.082 764.093C719.207 764.066 719.331 764.038 719.484 764.135L853.637 806.492C853.915 806.561 854.095 806.783 854.123 806.908L884.577 944.331C884.632 944.581 884.563 944.859 884.313 944.914L780.614 1039.98C780.392 1040.16 780.142 1040.22 779.99 1040.12L645.837 997.763C645.559 997.693 645.379 997.471 645.351 997.346L614.897 859.923C614.842 859.673 614.911 859.396 615.161 859.34L718.859 764.274C718.859 764.274 718.957 764.121 719.082 764.093ZM852.831 807.588L719.386 765.467L616.229 860.021L646.517 996.695L779.963 1038.81L883.12 944.261L852.831 807.588Z" fill="black"/>
<path d="M719.084 764.092C719.459 764.009 719.764 764.203 719.847 764.578L780.728 1039.3C780.811 1039.67 780.617 1039.98 780.242 1040.06C779.867 1040.15 779.562 1039.95 779.479 1039.58L718.625 764.98C718.542 764.605 718.709 764.175 719.084 764.092Z" fill="black"/>
<path d="M615.257 859.184C615.382 859.156 615.507 859.129 615.659 859.226L884.09 943.911C884.368 943.981 884.603 944.453 884.534 944.73C884.464 945.008 883.992 945.243 883.715 945.174L615.284 860.489C615.006 860.419 614.771 859.947 614.84 859.67C614.91 859.392 615.132 859.212 615.257 859.184Z" fill="black"/>
<path d="M853.237 806.451C853.486 806.395 853.639 806.493 853.819 806.715C854 806.937 854.11 807.437 853.763 807.645L646.241 997.806C646.019 997.986 645.519 998.097 645.311 997.75C645.131 997.528 645.02 997.028 645.367 996.82L852.89 806.659C853.015 806.631 853.112 806.478 853.237 806.451Z" fill="black"/>
<path d="M1744.1 320.678C1744.22 320.651 1744.35 320.623 1744.5 320.72L1878.65 363.076C1878.93 363.146 1879.11 363.368 1879.14 363.493L1909.59 500.916C1909.65 501.166 1909.58 501.444 1909.33 501.499L1805.63 596.566C1805.41 596.746 1805.16 596.802 1805.01 596.704L1670.85 554.348C1670.58 554.278 1670.4 554.056 1670.37 553.931L1639.91 416.508C1639.86 416.258 1639.93 415.981 1640.18 415.925L1743.88 320.859C1743.88 320.859 1743.97 320.706 1744.1 320.678ZM1877.85 364.173L1744.4 322.052L1641.25 416.606L1671.54 553.28L1804.98 595.4L1908.14 500.846L1877.85 364.173Z" fill="black"/>
<path d="M1744.1 320.677C1744.48 320.594 1744.78 320.788 1744.86 321.163L1805.75 595.885C1805.83 596.259 1805.63 596.565 1805.26 596.648C1804.88 596.731 1804.58 596.536 1804.5 596.162L1743.62 321.44C1743.56 321.19 1743.73 320.76 1744.1 320.677Z" fill="black"/>
<path d="M1640.41 415.744C1640.53 415.716 1640.65 415.688 1640.81 415.785L1909.24 500.471C1909.52 500.54 1909.75 501.012 1909.68 501.29C1909.61 501.567 1909.14 501.803 1908.86 501.733L1640.43 417.048C1640.15 416.979 1639.92 416.507 1639.99 416.229C1639.93 415.979 1640.16 415.799 1640.41 415.744Z" fill="black"/>
<path d="M1878.25 363.036C1878.5 362.98 1878.66 363.077 1878.84 363.3C1879.02 363.522 1879.13 364.022 1878.78 364.23L1671.26 554.391C1671.04 554.571 1670.54 554.682 1670.33 554.335C1670.15 554.113 1670.04 553.613 1670.39 553.405L1878.03 363.216C1878.13 363.063 1878.13 363.063 1878.25 363.036Z" fill="black"/>
<path d="M1506.12 373.413C1506.24 373.385 1506.37 373.357 1506.52 373.454L1640.68 415.811C1640.95 415.88 1641.13 416.103 1641.16 416.228L1671.62 553.651C1671.67 553.901 1671.6 554.178 1671.35 554.234L1567.65 649.3C1567.43 649.481 1567.18 649.536 1567.03 649.439L1432.88 607.082C1432.6 607.013 1432.42 606.791 1432.39 606.666L1401.94 469.243C1401.88 468.993 1401.95 468.715 1402.2 468.66L1505.9 373.593C1505.9 373.593 1505.99 373.44 1506.12 373.413ZM1639.87 416.907L1506.42 374.787L1403.27 469.34L1433.56 606.014L1567 648.134L1670.16 553.58L1639.87 416.907Z" fill="black"/>
<path d="M1506.12 373.416C1506.5 373.333 1506.8 373.528 1506.88 373.902L1567.77 648.624C1567.85 648.999 1567.65 649.304 1567.28 649.387C1566.91 649.47 1566.6 649.276 1566.52 648.901L1505.64 374.179C1505.58 373.929 1505.75 373.499 1506.12 373.416Z" fill="black"/>
<path d="M1402.42 468.485C1402.55 468.457 1402.67 468.429 1402.83 468.526L1671.13 553.239C1671.41 553.309 1671.65 553.781 1671.58 554.058C1671.51 554.336 1671.03 554.572 1670.76 554.502L1402.33 469.817C1402.05 469.747 1401.81 469.275 1401.88 468.998C1401.95 468.72 1402.17 468.54 1402.42 468.485Z" fill="black"/>
<path d="M1640.4 415.745C1640.65 415.689 1640.8 415.786 1640.98 416.009C1641.16 416.231 1641.27 416.731 1640.93 416.939L1433.41 607.1C1433.18 607.28 1432.68 607.391 1432.48 607.044C1432.3 606.822 1432.18 606.322 1432.53 606.114L1640.05 415.953C1640.15 415.8 1640.28 415.772 1640.4 415.745Z" fill="black"/>
<path d="M1268.15 426.151C1268.28 426.123 1268.4 426.096 1268.56 426.193L1402.71 468.549C1402.99 468.619 1403.17 468.841 1403.2 468.966L1433.65 606.389C1433.71 606.639 1433.64 606.916 1433.39 606.972L1329.69 702.039C1329.47 702.219 1329.22 702.274 1329.06 702.177L1194.91 659.821C1194.63 659.751 1194.45 659.529 1194.42 659.404L1163.97 521.981C1163.91 521.731 1163.98 521.453 1164.23 521.398L1267.93 426.331C1268.06 426.303 1268.15 426.151 1268.15 426.151ZM1402.03 469.617L1268.46 427.525L1165.3 522.079L1195.59 658.752L1329.04 700.872L1432.19 606.319L1401.9 469.645L1402.03 469.617Z" fill="black"/>
<path d="M1268.15 426.155C1268.53 426.071 1268.83 426.266 1268.92 426.641L1329.8 701.362C1329.88 701.737 1329.69 702.042 1329.31 702.125C1328.94 702.208 1328.63 702.014 1328.55 701.639L1267.67 426.918C1267.61 426.668 1267.9 426.21 1268.15 426.155Z" fill="black"/>
<path d="M1164.46 521.221C1164.58 521.193 1164.71 521.166 1164.86 521.263L1433.29 605.948C1433.57 606.018 1433.8 606.49 1433.73 606.767C1433.66 607.045 1433.19 607.281 1432.91 607.211L1164.48 522.526C1164.21 522.456 1163.97 521.984 1164.04 521.707C1164.11 521.429 1164.21 521.277 1164.46 521.221Z" fill="black"/>
<path d="M1402.43 468.483C1402.68 468.428 1402.83 468.525 1403.01 468.747C1403.19 468.969 1403.31 469.469 1402.96 469.677L1195.44 659.838C1195.21 660.018 1194.71 660.129 1194.51 659.782C1194.33 659.56 1194.22 659.06 1194.56 658.852L1402.08 468.691C1402.18 468.538 1402.31 468.511 1402.43 468.483Z" fill="black"/>
<path d="M1030.3 478.864C1030.43 478.836 1030.55 478.808 1030.7 478.906L1164.86 521.262C1165.13 521.332 1165.31 521.554 1165.34 521.679L1195.8 659.102C1195.85 659.352 1195.78 659.629 1195.53 659.685L1091.83 754.751C1091.61 754.932 1091.36 754.987 1091.21 754.89L957.056 712.534C956.778 712.464 956.598 712.242 956.571 712.117L926.116 574.694C926.061 574.444 926.13 574.166 926.38 574.111L1030.08 479.044C1030.08 479.044 1030.18 478.891 1030.3 478.864ZM1164.05 522.358L1030.61 480.238L927.448 574.792L957.737 711.465L1091.18 753.585L1194.34 659.032L1164.05 522.358Z" fill="black"/>
<path d="M1030.3 478.863C1030.67 478.78 1030.98 478.974 1031.06 479.349L1091.94 754.07C1092.03 754.445 1091.83 754.75 1091.46 754.833C1091.08 754.916 1090.78 754.722 1090.69 754.347L1029.81 479.626C1029.76 479.376 1029.92 478.946 1030.3 478.863Z" fill="black"/>
<path d="M926.476 573.954C926.601 573.926 926.726 573.898 926.878 573.995L1195.31 658.681C1195.59 658.75 1195.82 659.222 1195.75 659.5C1195.68 659.777 1195.21 660.013 1194.93 659.943L926.503 575.258C926.225 575.189 925.99 574.717 926.059 574.439C926.129 574.162 926.351 573.981 926.476 573.954Z" fill="black"/>
<path d="M1164.45 521.22C1164.7 521.165 1164.85 521.262 1165.03 521.484C1165.21 521.706 1165.33 522.206 1164.98 522.414L957.456 712.575C957.234 712.756 956.735 712.866 956.527 712.519C956.346 712.297 956.235 711.797 956.583 711.589L1164.1 521.428C1164.2 521.276 1164.33 521.248 1164.45 521.22Z" fill="black"/>
<path d="M792.324 531.602C792.448 531.574 792.573 531.547 792.726 531.644L926.879 574C927.157 574.07 927.337 574.292 927.365 574.417L957.819 711.84C957.874 712.09 957.805 712.368 957.555 712.423L853.856 807.49C853.634 807.67 853.384 807.725 853.232 807.628L719.079 765.272C718.801 765.202 718.621 764.98 718.593 764.855L688.139 627.432C688.083 627.182 688.153 626.905 688.403 626.849L792.101 531.782C792.101 531.782 792.199 531.63 792.324 531.602ZM926.073 575.096L792.628 532.976L689.471 627.53L719.759 764.203L853.205 806.324L956.362 711.77L926.073 575.096Z" fill="black"/>
<path d="M792.326 531.601C792.701 531.518 793.006 531.712 793.089 532.087L853.97 806.809C854.053 807.183 853.859 807.489 853.484 807.572C853.109 807.655 852.804 807.46 852.721 807.085L791.84 532.364C791.784 532.114 791.951 531.684 792.326 531.601Z" fill="black"/>
<path d="M688.625 626.667C688.75 626.64 688.875 626.612 689.028 626.709L957.458 711.394C957.736 711.464 957.972 711.936 957.902 712.214C957.833 712.491 957.361 712.727 957.083 712.657L688.652 627.972C688.375 627.903 688.139 627.431 688.208 627.153C688.153 626.903 688.375 626.723 688.625 626.667Z" fill="black"/>
<path d="M926.479 573.959C926.728 573.904 926.881 574.001 927.061 574.224C927.242 574.446 927.352 574.945 927.005 575.153L719.483 765.315C719.261 765.495 718.761 765.606 718.553 765.259C718.373 765.036 718.262 764.537 718.609 764.329L926.131 574.167C926.354 573.987 926.479 573.959 926.479 573.959Z" fill="black"/>
<path d="M554.343 584.34C554.468 584.313 554.593 584.285 554.746 584.382L688.899 626.739C689.176 626.808 689.357 627.03 689.384 627.155L719.839 764.578C719.894 764.828 719.824 765.106 719.575 765.161L615.876 860.228C615.654 860.408 615.404 860.464 615.251 860.366L481.098 818.01C480.821 817.941 480.641 817.718 480.613 817.593L450.158 680.17C450.103 679.92 450.173 679.643 450.422 679.587L554.121 584.521C554.246 584.493 554.218 584.368 554.343 584.34ZM688.218 627.807L554.648 585.715L451.491 680.268L481.779 816.942L615.224 859.062L718.381 764.508L688.093 627.835L688.218 627.807Z" fill="black"/>
<path d="M554.345 584.343C554.72 584.26 555.025 584.454 555.108 584.829L615.99 859.551C616.073 859.926 615.878 860.231 615.503 860.314C615.129 860.397 614.823 860.202 614.74 859.828L553.859 585.106C553.804 584.856 554.095 584.398 554.345 584.343Z" fill="black"/>
<path d="M450.645 679.41C450.77 679.382 450.894 679.354 451.047 679.451L719.478 764.137C719.756 764.206 719.991 764.678 719.922 764.956C719.852 765.233 719.38 765.469 719.103 765.399L450.672 680.714C450.394 680.645 450.158 680.173 450.228 679.895C450.173 679.645 450.395 679.465 450.645 679.41Z" fill="black"/>
<path d="M688.62 626.671C688.87 626.616 689.023 626.713 689.203 626.935C689.383 627.158 689.494 627.657 689.147 627.865L481.625 818.027C481.403 818.207 480.903 818.318 480.695 817.971C480.515 817.748 480.404 817.249 480.751 817.041L688.273 626.879C688.37 626.727 688.495 626.699 688.62 626.671Z" fill="black"/>
<path d="M1817.39 88.3101C1817.51 88.2824 1817.64 88.2547 1817.79 88.352L1951.95 130.708C1952.22 130.778 1952.4 131 1952.43 131.125L1982.89 268.548C1982.94 268.798 1982.87 269.076 1982.62 269.131L1878.92 364.198C1878.7 364.378 1878.45 364.434 1878.3 364.336L1744.15 321.98C1743.87 321.91 1743.69 321.688 1743.66 321.563L1713.21 184.14C1713.15 183.89 1713.22 183.613 1713.47 183.557L1817.17 88.4904C1817.26 88.3378 1817.26 88.3378 1817.39 88.3101ZM1951.26 131.777L1817.82 89.6566L1714.66 184.21L1744.95 320.884L1878.4 363.004L1981.55 268.45L1951.26 131.777Z" fill="black"/>
<path d="M1713.69 183.38C1713.82 183.353 1713.94 183.325 1714.09 183.422L1982.52 268.107C1982.8 268.177 1983.04 268.649 1982.97 268.926C1982.9 269.204 1982.43 269.44 1982.15 269.37L1713.72 184.685C1713.44 184.615 1713.21 184.143 1713.27 183.866C1713.22 183.616 1713.44 183.436 1713.69 183.38Z" fill="black"/>
<path d="M1951.67 130.642C1951.92 130.587 1952.07 130.684 1952.25 130.906C1952.43 131.128 1952.54 131.628 1952.19 131.836L1744.67 321.997C1744.45 322.178 1743.95 322.288 1743.74 321.941C1743.56 321.719 1743.45 321.219 1743.8 321.011L1951.32 130.85C1951.42 130.697 1951.54 130.67 1951.67 130.642Z" fill="black"/>
<path d="M1579.53 141.028C1579.65 141 1579.77 140.972 1579.93 141.07L1714.08 183.426C1714.36 183.496 1714.54 183.718 1714.57 183.843L1745.02 321.266C1745.08 321.516 1745.01 321.793 1744.76 321.849L1641.06 416.916C1640.84 417.096 1640.59 417.151 1640.43 417.054L1506.28 374.698C1506 374.628 1505.82 374.406 1505.79 374.281L1475.34 236.858C1475.28 236.608 1475.35 236.33 1475.6 236.275L1579.3 141.208C1579.28 141.083 1579.4 141.056 1579.53 141.028ZM1713.27 184.522L1579.83 142.402L1476.67 236.956L1506.96 373.629L1640.41 415.749L1743.56 321.196L1713.27 184.522Z" fill="black"/>
<path d="M1579.53 141.03C1579.91 140.947 1580.21 141.141 1580.29 141.516L1641.17 416.238C1641.26 416.613 1641.06 416.918 1640.69 417.001C1640.31 417.084 1640.01 416.889 1639.93 416.515L1579.04 141.793C1578.84 141.446 1579.16 141.113 1579.53 141.03Z" fill="black"/>
<path d="M1475.7 236.123C1475.83 236.095 1475.95 236.067 1476.11 236.164L1744.54 320.849C1744.82 320.919 1745.05 321.391 1744.98 321.669C1744.91 321.946 1744.44 322.182 1744.16 322.112L1475.73 237.427C1475.45 237.358 1475.22 236.886 1475.29 236.608C1475.36 236.331 1475.45 236.178 1475.7 236.123Z" fill="black"/>
<path d="M1713.68 183.384C1713.93 183.329 1714.08 183.426 1714.26 183.648C1714.44 183.87 1714.55 184.37 1714.21 184.578L1506.68 374.74C1506.46 374.92 1505.96 375.031 1505.75 374.683C1505.57 374.461 1505.46 373.962 1505.81 373.754L1713.33 183.592C1713.43 183.44 1713.56 183.412 1713.68 183.384Z" fill="black"/>
<path d="M1341.55 193.757C1341.67 193.73 1341.8 193.702 1341.95 193.799L1476.1 236.156C1476.38 236.225 1476.56 236.447 1476.59 236.572L1507.04 373.996C1507.1 374.245 1507.03 374.523 1506.78 374.578L1403.08 469.645C1402.86 469.825 1402.61 469.881 1402.45 469.784L1268.3 427.427C1268.02 427.358 1267.84 427.135 1267.82 427.01L1237.36 289.587C1237.31 289.337 1237.38 289.06 1237.62 289.004L1341.32 193.938C1341.3 193.813 1341.42 193.785 1341.55 193.757ZM1475.3 237.252L1341.85 195.132L1238.69 289.685L1268.98 426.359L1402.43 468.479L1505.58 373.925L1475.3 237.252Z" fill="black"/>
<path d="M1341.55 193.756C1341.92 193.673 1342.23 193.868 1342.31 194.242L1403.19 468.964C1403.27 469.339 1403.08 469.644 1402.71 469.727C1402.33 469.81 1402.03 469.615 1401.94 469.241L1341.06 194.519C1340.98 194.144 1341.17 193.839 1341.55 193.756Z" fill="black"/>
<path d="M1237.72 288.848C1237.85 288.82 1237.97 288.793 1238.13 288.89L1506.56 373.575C1506.84 373.645 1507.07 374.117 1507 374.394C1506.93 374.672 1506.46 374.907 1506.18 374.838L1237.75 290.153C1237.47 290.083 1237.24 289.611 1237.31 289.334C1237.38 289.056 1237.6 288.876 1237.72 288.848Z" fill="black"/>
<path d="M1475.7 236.115C1475.95 236.059 1476.1 236.157 1476.28 236.379C1476.46 236.601 1476.57 237.101 1476.23 237.309L1268.71 427.47C1268.48 427.65 1267.98 427.761 1267.78 427.414C1267.6 427.192 1267.48 426.692 1267.83 426.484L1475.35 236.323C1475.45 236.17 1475.58 236.142 1475.7 236.115Z" fill="black"/>
<path d="M1103.57 246.49C1103.7 246.462 1103.82 246.434 1103.97 246.532L1238.13 288.888C1238.41 288.958 1238.59 289.18 1238.61 289.305L1269.07 426.728C1269.12 426.978 1269.05 427.255 1268.8 427.311L1165.1 522.378C1164.88 522.558 1164.63 522.613 1164.48 522.516L1030.33 480.16C1030.05 480.09 1029.87 479.868 1029.84 479.743L999.387 342.32C999.332 342.07 999.402 341.792 999.651 341.737L1103.35 246.67C1103.32 246.545 1103.45 246.517 1103.57 246.49ZM1237.32 289.984L1103.88 247.864L1000.72 342.418L1031.01 479.091L1164.45 521.211L1267.61 426.658L1237.32 289.984Z" fill="black"/>
<path d="M1103.57 246.489C1103.95 246.405 1104.25 246.6 1104.34 246.975L1165.22 521.696C1165.3 522.071 1165.11 522.376 1164.73 522.459C1164.36 522.542 1164.05 522.348 1163.97 521.973L1103.09 247.252C1103 246.877 1103.2 246.572 1103.57 246.489Z" fill="black"/>
<path d="M999.873 341.555C999.998 341.527 1000.12 341.5 1000.28 341.597L1268.71 426.282C1268.98 426.352 1269.22 426.824 1269.15 427.101C1269.08 427.379 1268.61 427.614 1268.33 427.545L999.9 342.86C999.623 342.79 999.387 342.318 999.457 342.041C999.401 341.791 999.624 341.611 999.873 341.555Z" fill="black"/>
<path d="M1237.73 288.847C1237.98 288.792 1238.13 288.889 1238.31 289.111C1238.49 289.333 1238.6 289.833 1238.25 290.041L1030.73 480.202C1030.51 480.383 1030.01 480.493 1029.8 480.146C1029.62 479.924 1029.51 479.424 1029.86 479.216L1237.38 289.055C1237.6 288.875 1237.73 288.847 1237.73 288.847Z" fill="black"/>
<path d="M865.597 299.237C865.722 299.209 865.847 299.181 865.999 299.279L1000.15 341.635C1000.43 341.705 1000.61 341.927 1000.64 342.052L1031.09 479.475C1031.15 479.725 1031.08 480.002 1030.83 480.058L927.13 575.125C926.908 575.305 926.658 575.36 926.505 575.263L792.352 532.907C792.075 532.837 791.894 532.615 791.867 532.49L761.412 395.067C761.357 394.817 761.427 394.539 761.676 394.484L865.375 299.417C865.472 299.265 865.597 299.237 865.597 299.237ZM999.472 342.703L866.027 300.583L762.869 395.137L793.158 531.811L926.603 573.931L1029.76 479.377L999.472 342.703Z" fill="black"/>
<path d="M865.595 299.24C865.97 299.157 866.275 299.352 866.358 299.727L927.239 574.448C927.322 574.823 927.128 575.128 926.753 575.211C926.378 575.294 926.073 575.1 925.99 574.725L865.109 300.004C865.026 299.629 865.345 299.296 865.595 299.24Z" fill="black"/>
<path d="M761.898 394.302C762.023 394.275 762.148 394.247 762.301 394.344L1030.73 479.029C1031.01 479.099 1031.24 479.571 1031.18 479.848C1031.11 480.126 1030.63 480.362 1030.36 480.292L761.925 395.607C761.648 395.537 761.412 395.065 761.482 394.788C761.551 394.51 761.648 394.358 761.898 394.302Z" fill="black"/>
<path d="M999.874 341.569C1000.12 341.513 1000.28 341.611 1000.46 341.833C1000.64 342.055 1000.75 342.555 1000.4 342.763L792.879 532.924C792.657 533.104 792.157 533.215 791.949 532.868C791.769 532.646 791.658 532.146 792.005 531.938L999.527 341.777C999.624 341.624 999.749 341.597 999.874 341.569Z" fill="black"/>
<path d="M627.744 351.951C627.869 351.923 627.994 351.895 628.146 351.993L762.299 394.349C762.577 394.419 762.757 394.641 762.785 394.766L793.239 532.189C793.295 532.439 793.225 532.716 792.975 532.772L689.277 627.839C689.055 628.019 688.805 628.074 688.652 627.977L554.499 585.621C554.222 585.551 554.041 585.329 554.014 585.204L523.559 447.781C523.504 447.531 523.573 447.253 523.823 447.198L627.522 352.131C627.494 352.006 627.619 351.978 627.744 351.951ZM761.494 395.445L628.049 353.325L524.892 447.879L555.18 584.552L688.625 626.672L791.782 532.119L761.494 395.445Z" fill="black"/>
<path d="M627.746 351.953C628.121 351.87 628.426 352.065 628.509 352.44L689.39 627.161C689.473 627.536 689.279 627.841 688.904 627.924C688.529 628.007 688.224 627.813 688.141 627.438L627.26 352.716C627.177 352.342 627.371 352.036 627.746 351.953Z" fill="black"/>
<path d="M523.919 447.045C524.044 447.018 524.169 446.99 524.322 447.087L792.752 531.772C793.03 531.842 793.266 532.314 793.196 532.592C793.126 532.869 792.655 533.105 792.377 533.035L523.946 448.35C523.669 448.281 523.433 447.808 523.502 447.531C523.572 447.253 523.794 447.073 523.919 447.045Z" fill="black"/>
<path d="M761.899 394.307C762.149 394.252 762.301 394.349 762.482 394.571C762.662 394.793 762.773 395.293 762.426 395.501L554.904 585.662C554.681 585.843 554.182 585.953 553.974 585.606C553.793 585.384 553.683 584.884 554.03 584.676L761.552 394.515C761.649 394.362 761.774 394.335 761.899 394.307Z" fill="black"/>
<path d="M1890.76 -144.231C1890.89 -144.259 1891.01 -144.286 1891.17 -144.189L2025.32 -101.833C2025.6 -101.763 2025.78 -101.541 2025.8 -101.416L2056.26 36.0073C2056.31 36.2571 2056.24 36.5347 2055.99 36.59L1952.3 131.657C1952.07 131.837 1951.82 131.893 1951.67 131.795L1817.52 89.4389C1817.24 89.3693 1817.06 89.1471 1817.03 89.0222L1786.58 -48.401C1786.52 -48.6509 1786.59 -48.9284 1786.84 -48.9838L1890.54 -144.051C1890.51 -144.176 1890.64 -144.203 1890.76 -144.231ZM2024.51 -100.737L1891.07 -142.857L1787.91 -48.3031L1818.2 88.3706L1951.64 130.491L2054.8 35.937L2024.51 -100.737Z" fill="black"/>
<path d="M1652.76 -91.4673C1652.89 -91.4949 1653.01 -91.5226 1653.17 -91.4254L1787.32 -49.069C1787.6 -48.9994 1787.78 -48.7772 1787.81 -48.6523L1818.26 88.7709C1818.32 89.0208 1818.25 89.2983 1818 89.3537L1714.3 184.421C1714.08 184.601 1713.83 184.656 1713.67 184.559L1579.52 142.203C1579.24 142.133 1579.06 141.911 1579.03 141.786L1548.58 4.36263C1548.52 4.11278 1548.59 3.83526 1548.84 3.77989L1652.54 -91.287C1652.52 -91.4119 1652.64 -91.4396 1652.76 -91.4673ZM1786.51 -47.973L1653.07 -90.093L1549.91 4.46057L1580.2 141.134L1713.65 183.254L1816.8 88.7007L1786.51 -47.973Z" fill="black"/>
<path d="M1652.77 -91.4685C1653.14 -91.5516 1653.45 -91.3571 1653.53 -90.9823L1714.41 183.739C1714.49 184.114 1714.3 184.419 1713.92 184.502C1713.55 184.585 1713.25 184.391 1713.16 184.016L1652.28 -90.7054C1652.2 -91.0802 1652.39 -91.3854 1652.77 -91.4685Z" fill="black"/>
<path d="M1549.07 3.59812C1549.2 3.57044 1549.32 3.54278 1549.47 3.64003L1817.9 88.3251C1818.18 88.3947 1818.42 88.8667 1818.35 89.1442C1818.28 89.4218 1817.81 89.6575 1817.53 89.5879L1549.1 4.90281C1548.82 4.83325 1548.58 4.36118 1548.65 4.08364C1548.57 3.70885 1548.82 3.65349 1549.07 3.59812Z" fill="black"/>
<path d="M1786.92 -49.1109C1787.17 -49.1662 1787.32 -49.069 1787.5 -48.8468C1787.68 -48.6246 1787.79 -48.1249 1787.45 -47.9169L1579.92 142.244C1579.7 142.425 1579.2 142.535 1578.99 142.188C1578.81 141.966 1578.7 141.466 1579.05 141.258L1786.67 -49.0555C1786.8 -49.0832 1786.8 -49.0832 1786.92 -49.1109Z" fill="black"/>
<path d="M1414.78 -38.7339C1414.91 -38.7615 1415.03 -38.7892 1415.19 -38.692L1549.34 3.66444C1549.62 3.734 1549.8 3.95616 1549.83 4.08109L1580.28 141.504C1580.34 141.754 1580.27 142.032 1580.02 142.087L1476.32 237.154C1476.1 237.334 1475.85 237.39 1475.69 237.292L1341.54 194.936C1341.26 194.866 1341.08 194.644 1341.05 194.519L1310.6 57.096C1310.54 56.8462 1310.61 56.5687 1310.86 56.5133L1414.56 -38.5536C1414.53 -38.6785 1414.66 -38.7062 1414.78 -38.7339ZM1548.53 4.76041L1415.09 -37.3596L1311.93 57.194L1342.22 193.868L1475.67 235.988L1578.82 141.434L1548.53 4.76041Z" fill="black"/>
<path d="M1414.79 -38.7312C1415.16 -38.8142 1415.47 -38.6198 1415.55 -38.245L1476.43 236.477C1476.51 236.851 1476.32 237.157 1475.94 237.24C1475.57 237.323 1475.26 237.128 1475.18 236.753L1414.3 -37.9681C1414.22 -38.3429 1414.41 -38.6481 1414.79 -38.7312Z" fill="black"/>
<path d="M1311.09 56.337C1311.21 56.3094 1311.34 56.2817 1311.49 56.379L1579.77 140.967C1580.05 141.036 1580.28 141.508 1580.21 141.786C1580.14 142.064 1579.67 142.299 1579.39 142.23L1310.96 57.5445C1310.69 57.4749 1310.45 57.0029 1310.52 56.7253C1310.59 56.4478 1310.84 56.3924 1311.09 56.337Z" fill="black"/>
<path d="M1549.07 3.59812C1549.32 3.54275 1549.47 3.64001 1549.65 3.86219C1549.83 4.08437 1549.94 4.58409 1549.59 4.79207L1342.07 194.953C1341.85 195.134 1341.35 195.244 1341.14 194.897C1340.96 194.675 1340.85 194.175 1341.2 193.967L1548.72 3.80613C1548.82 3.65351 1548.94 3.62581 1549.07 3.59812Z" fill="black"/>
<path d="M1176.82 14.0044C1176.94 13.9767 1177.07 13.9491 1177.22 14.0463L1311.37 56.4027C1311.65 56.4723 1311.83 56.6944 1311.86 56.8194L1342.31 194.243C1342.37 194.492 1342.3 194.77 1342.05 194.825L1238.35 289.892C1238.13 290.073 1237.88 290.128 1237.72 290.031L1103.57 247.674C1103.29 247.605 1103.11 247.382 1103.09 247.258L1072.63 109.834C1072.58 109.584 1072.65 109.307 1072.9 109.252L1176.59 14.1847C1176.69 14.0321 1176.82 14.0044 1176.82 14.0044ZM1310.69 57.471L1177.25 15.351L1074.09 109.905L1104.38 246.578L1237.82 288.698L1340.98 194.145L1310.69 57.471Z" fill="black"/>
<path d="M1176.81 14.0071C1177.19 13.924 1177.49 14.1185 1177.58 14.4933L1238.46 289.215C1238.54 289.59 1238.35 289.895 1237.97 289.978C1237.6 290.061 1237.29 289.866 1237.21 289.492L1176.33 14.7702C1176.25 14.3954 1176.56 14.0625 1176.81 14.0071Z" fill="black"/>
<path d="M1073.12 109.074C1073.24 109.046 1073.37 109.018 1073.52 109.116L1341.95 193.801C1342.23 193.87 1342.46 194.342 1342.39 194.62C1342.33 194.897 1341.85 195.133 1341.58 195.063L1073.14 110.378C1072.87 110.309 1072.63 109.837 1072.7 109.559C1072.74 109.157 1072.87 109.129 1073.12 109.074Z" fill="black"/>
<path d="M1311.09 56.3354C1311.34 56.2801 1311.5 56.3773 1311.68 56.5995C1311.86 56.8217 1311.97 57.3214 1311.62 57.5294L1104.1 247.691C1103.88 247.871 1103.38 247.982 1103.17 247.635C1102.99 247.412 1102.88 246.913 1103.22 246.705L1310.72 56.4185C1310.84 56.3908 1310.97 56.3631 1311.09 56.3354Z" fill="black"/>
<path d="M938.962 66.7173C939.087 66.6896 939.212 66.6619 939.365 66.7592L1073.52 109.116C1073.8 109.185 1073.98 109.407 1074 109.532L1104.46 246.955C1104.51 247.205 1104.44 247.483 1104.19 247.538L1000.5 342.605C1000.27 342.785 1000.02 342.841 999.871 342.744L865.718 300.387C865.44 300.318 865.26 300.095 865.232 299.97L834.778 162.547C834.722 162.297 834.792 162.02 835.042 161.964L938.74 66.8976C938.713 66.7727 938.838 66.745 938.962 66.7173ZM1072.71 110.212L939.267 68.0916L836.11 162.645L866.398 299.319L999.844 341.439L1103 246.885L1072.71 110.212Z" fill="black"/>
<path d="M938.964 66.7161C939.339 66.633 939.644 66.8275 939.727 67.2023L1000.61 341.924C1000.69 342.299 1000.5 342.604 1000.12 342.687C999.748 342.77 999.443 342.575 999.359 342.201L938.478 67.4791C938.395 67.1044 938.59 66.7991 938.964 66.7161Z" fill="black"/>
<path d="M835.142 161.808C835.267 161.78 835.392 161.753 835.544 161.85L1103.98 246.535C1104.25 246.605 1104.49 247.077 1104.42 247.354C1104.35 247.632 1103.88 247.867 1103.6 247.798L835.169 163.113C834.891 163.043 834.656 162.571 834.725 162.294C834.767 161.891 835.017 161.836 835.142 161.808Z" fill="black"/>
<path d="M1073.12 109.074C1073.37 109.018 1073.52 109.116 1073.7 109.338C1073.88 109.56 1073.99 110.06 1073.64 110.268L866.122 300.429C865.9 300.609 865.4 300.72 865.192 300.373C865.012 300.151 864.901 299.651 865.248 299.443L1072.77 109.282C1072.87 109.129 1072.99 109.101 1073.12 109.074Z" fill="black"/>
<path d="M700.987 119.462C701.112 119.435 701.237 119.407 701.389 119.504L835.542 161.861C835.82 161.93 836 162.152 836.028 162.277L866.482 299.701C866.537 299.95 866.468 300.228 866.218 300.283L762.52 395.35C762.297 395.531 762.047 395.586 761.895 395.489L627.742 353.132C627.464 353.063 627.284 352.84 627.256 352.716L596.802 215.292C596.747 215.042 596.816 214.765 597.066 214.71L700.765 119.643C700.737 119.518 700.862 119.49 700.987 119.462ZM834.737 162.957L701.291 120.837L598.134 215.39L628.423 352.064L761.868 394.184L865.025 299.63L834.737 162.957Z" fill="black"/>
<path d="M700.989 119.466C701.363 119.383 701.669 119.578 701.752 119.952L762.633 394.674C762.716 395.049 762.521 395.354 762.147 395.437C761.772 395.52 761.467 395.325 761.384 394.951L700.502 120.229C700.419 119.854 700.614 119.549 700.989 119.466Z" fill="black"/>
<path d="M597.288 214.528C597.413 214.5 597.538 214.472 597.69 214.57L866.121 299.255C866.399 299.324 866.635 299.796 866.565 300.074C866.495 300.351 866.023 300.587 865.746 300.518L597.315 215.832C597.037 215.763 596.802 215.291 596.871 215.013C596.788 214.639 597.038 214.583 597.288 214.528Z" fill="black"/>
<path d="M835.142 161.82C835.392 161.764 835.544 161.862 835.724 162.084C835.905 162.306 836.015 162.806 835.668 163.014L628.146 353.175C627.924 353.355 627.424 353.466 627.216 353.119C627.036 352.897 626.925 352.397 627.273 352.189L834.795 162.028C835.017 161.847 835.142 161.82 835.142 161.82Z" fill="black"/>
<path d="M463.009 172.193C463.134 172.165 463.259 172.138 463.411 172.235L597.564 214.591C597.842 214.661 598.022 214.883 598.05 215.008L628.504 352.431C628.56 352.681 628.49 352.958 628.24 353.014L524.542 448.081C524.32 448.261 524.07 448.316 523.917 448.219L389.764 405.863C389.487 405.793 389.306 405.571 389.279 405.446L358.824 268.023C358.769 267.773 358.838 267.495 359.088 267.44L462.787 172.373C462.884 172.221 462.884 172.221 463.009 172.193ZM596.884 215.659L463.438 173.539L360.281 268.093L390.57 404.767L524.015 446.887L627.172 352.333L596.884 215.659Z" fill="black"/>
<path d="M463.011 172.196C463.386 172.113 463.691 172.307 463.774 172.682L524.655 447.403C524.738 447.778 524.544 448.083 524.169 448.166C523.794 448.249 523.489 448.055 523.406 447.68L462.525 172.959C462.442 172.584 462.761 172.251 463.011 172.196Z" fill="black"/>
<path d="M359.31 267.262C359.435 267.235 359.56 267.207 359.713 267.304L628.144 351.989C628.421 352.059 628.657 352.531 628.587 352.808C628.518 353.086 628.046 353.322 627.768 353.252L359.337 268.567C359.06 268.497 358.824 268.025 358.894 267.748C358.811 267.373 359.06 267.318 359.31 267.262Z" fill="black"/>
<path d="M597.286 214.525C597.536 214.47 597.688 214.567 597.869 214.789C598.049 215.011 598.16 215.511 597.813 215.719L390.291 405.88C390.068 406.06 389.569 406.171 389.361 405.824C389.18 405.602 389.07 405.102 389.417 404.894L596.939 214.733C597.036 214.58 597.161 214.553 597.286 214.525Z" fill="black"/>
<path d="M1488.16 -271.233C1488.28 -271.261 1488.41 -271.288 1488.56 -271.191L1622.71 -228.835C1622.99 -228.765 1623.17 -228.543 1623.2 -228.418L1653.65 -90.9947C1653.71 -90.7448 1653.64 -90.4673 1653.39 -90.412L1549.69 4.6549C1549.47 4.8352 1549.22 4.89057 1549.07 4.79332L1414.91 -37.5631C1414.64 -37.6327 1414.46 -37.8548 1414.43 -37.9798L1383.97 -175.403C1383.92 -175.653 1383.99 -175.93 1384.24 -175.986L1487.94 -271.053C1487.91 -271.178 1488.03 -271.205 1488.16 -271.233ZM1621.91 -227.739L1488.46 -269.859L1385.31 -175.305L1415.59 -38.6314L1549.04 3.48861L1652.2 -91.065L1621.91 -227.739Z" fill="black"/>
<path d="M1488.16 -271.236C1488.54 -271.319 1488.84 -271.124 1488.93 -270.749L1549.81 3.97207C1549.89 4.34686 1549.7 4.65208 1549.32 4.73514C1548.95 4.81819 1548.64 4.6237 1548.56 4.24891L1487.68 -270.473C1487.47 -270.82 1487.79 -271.153 1488.16 -271.236Z" fill="black"/>
<path d="M1250.19 -218.516C1250.31 -218.544 1250.44 -218.571 1250.59 -218.474L1384.74 -176.118C1385.02 -176.048 1385.2 -175.826 1385.23 -175.701L1415.68 -38.2779C1415.74 -38.028 1415.67 -37.7505 1415.42 -37.6952L1311.72 57.3717C1311.5 57.552 1311.25 57.6074 1311.09 57.5101L1176.94 15.1537C1176.66 15.0841 1176.48 14.862 1176.46 14.737L1146 -122.686C1145.95 -122.936 1146.02 -123.214 1146.27 -123.269L1249.96 -218.336C1249.94 -218.461 1250.06 -218.488 1250.19 -218.516ZM1383.94 -175.022L1250.49 -217.142L1147.33 -122.588L1177.62 14.0854L1311.07 56.2054L1414.22 -38.3482L1383.94 -175.022Z" fill="black"/>
<path d="M1250.19 -218.517C1250.56 -218.6 1250.87 -218.406 1250.95 -218.031L1311.83 56.6904C1311.92 57.0652 1311.72 57.3704 1311.35 57.4535C1310.97 57.5365 1310.67 57.342 1310.58 56.9672L1249.7 -217.754C1249.62 -218.129 1249.81 -218.434 1250.19 -218.517Z" fill="black"/>
<path d="M1146.37 -123.425C1146.49 -123.453 1146.62 -123.481 1146.77 -123.383L1415.2 -38.6983C1415.48 -38.6288 1415.71 -38.1567 1415.64 -37.8792C1415.57 -37.6017 1415.1 -37.366 1414.82 -37.4356L1146.39 -122.121C1146.11 -122.19 1145.88 -122.662 1145.95 -122.94C1146.02 -123.217 1146.24 -123.398 1146.37 -123.425Z" fill="black"/>
<path d="M1384.34 -176.159C1384.59 -176.214 1384.74 -176.117 1384.92 -175.895C1385.1 -175.672 1385.21 -175.173 1384.87 -174.965L1177.35 15.1965C1177.12 15.3768 1176.62 15.4875 1176.42 15.1404C1176.24 14.9183 1176.12 14.4186 1176.47 14.2106L1383.99 -175.951C1384.09 -176.103 1384.22 -176.131 1384.34 -176.159Z" fill="black"/>
<path d="M1012.21 -165.774C1012.34 -165.802 1012.46 -165.829 1012.61 -165.732L1146.77 -123.376C1147.05 -123.306 1147.23 -123.084 1147.25 -122.959L1177.71 14.4643C1177.76 14.7141 1177.69 14.9917 1177.44 15.047L1073.75 110.114C1073.52 110.294 1073.27 110.35 1073.12 110.252L938.968 67.8959C938.69 67.8263 938.51 67.6042 938.482 67.4792L908.028 -69.944C907.972 -70.1939 908.042 -70.4714 908.292 -70.5268L1011.99 -165.594C1011.96 -165.719 1012.09 -165.746 1012.21 -165.774ZM1145.96 -122.28L1012.52 -164.4L909.36 -69.8461L939.648 66.8276L1073.09 108.948L1176.25 14.394L1145.96 -122.28Z" fill="black"/>
<path d="M1012.21 -165.775C1012.59 -165.858 1012.89 -165.664 1012.97 -165.289L1073.85 109.433C1073.94 109.807 1073.74 110.113 1073.37 110.196C1072.99 110.279 1072.69 110.084 1072.61 109.709L1011.72 -165.012C1011.64 -165.387 1011.84 -165.692 1012.21 -165.775Z" fill="black"/>
<path d="M908.51 -70.7085C908.635 -70.7362 908.76 -70.7639 908.912 -70.6666L1177.34 14.0185C1177.62 14.088 1177.86 14.56 1177.79 14.8376C1177.72 15.1151 1177.25 15.3508 1176.97 15.2812L908.537 -69.4039C908.259 -69.4734 908.023 -69.9454 908.093 -70.223C908.038 -70.4728 908.26 -70.6531 908.51 -70.7085Z" fill="black"/>
<path d="M1146.36 -123.417C1146.61 -123.472 1146.77 -123.375 1146.95 -123.152C1147.13 -122.93 1147.24 -122.431 1146.89 -122.223L939.368 67.9387C939.146 68.119 938.646 68.2297 938.438 67.8826C938.258 67.6605 938.147 67.1608 938.494 66.9528L1146.02 -123.209C1146.24 -123.389 1146.36 -123.417 1146.36 -123.417Z" fill="black"/>
<path d="M774.23 -113.075C774.355 -113.102 774.479 -113.13 774.632 -113.033L908.785 -70.6764C909.063 -70.6069 909.243 -70.3847 909.271 -70.2597L939.725 67.1635C939.78 67.4134 939.711 67.6909 939.461 67.7462L835.762 162.813C835.54 162.993 835.29 163.049 835.138 162.952L700.985 120.595C700.707 120.526 700.527 120.303 700.499 120.178L670.045 -17.2448C669.989 -17.4946 670.059 -17.7722 670.309 -17.8276L774.007 -112.894C774.105 -113.047 774.23 -113.075 774.23 -113.075ZM908.104 -69.6081L774.659 -111.728L671.502 -17.1745L701.79 119.499L835.236 161.619L938.393 67.0656L908.104 -69.6081Z" fill="black"/>
<path d="M774.232 -113.076C774.606 -113.159 774.912 -112.964 774.995 -112.59L835.876 162.132C835.959 162.507 835.764 162.812 835.39 162.895C835.015 162.978 834.71 162.783 834.627 162.409L773.745 -112.313C773.662 -112.688 773.982 -113.021 774.232 -113.076Z" fill="black"/>
<path d="M670.531 -18.0093C670.656 -18.037 670.781 -18.0647 670.933 -17.9674L939.364 66.7177C939.642 66.7872 939.877 67.2593 939.808 67.5368C939.738 67.8144 939.266 68.05 938.989 67.9805L670.558 -16.7046C670.28 -16.7742 670.045 -17.2462 670.114 -17.5238C670.184 -17.8013 670.281 -17.9539 670.531 -18.0093Z" fill="black"/>
<path d="M908.511 -70.7476C908.761 -70.8029 908.913 -70.7057 909.094 -70.4835C909.274 -70.2613 909.385 -69.7616 909.038 -69.5537L701.515 120.608C701.293 120.788 700.794 120.899 700.586 120.552C700.405 120.329 700.295 119.83 700.642 119.622L908.164 -70.5396C908.261 -70.6922 908.386 -70.7199 908.511 -70.7476Z" fill="black"/>
<path d="M536.375 -60.3227C536.5 -60.3504 536.625 -60.3781 536.777 -60.2808L670.93 -17.9244C671.208 -17.8549 671.388 -17.6327 671.416 -17.5078L701.87 119.915C701.926 120.165 701.856 120.443 701.606 120.498L597.908 215.565C597.686 215.745 597.436 215.801 597.283 215.703L463.13 173.347C462.853 173.278 462.672 173.055 462.645 172.93L432.19 35.5072C432.135 35.2573 432.204 34.9798 432.454 34.9244L536.153 -60.1424C536.125 -60.2674 536.25 -60.2951 536.375 -60.3227ZM670.125 -16.8285L536.68 -58.9485L433.523 35.6051L463.811 172.279L597.256 214.399L700.413 119.845L670.125 -16.8285Z" fill="black"/>
<path d="M536.377 -60.324C536.752 -60.407 537.057 -60.2125 537.14 -59.8377L598.021 214.884C598.104 215.259 597.91 215.564 597.535 215.647C597.16 215.73 596.855 215.535 596.772 215.161L535.891 -59.5609C535.808 -59.9357 536.002 -60.2409 536.377 -60.324Z" fill="black"/>
<path d="M432.554 34.7681C432.679 34.7404 432.804 34.7127 432.957 34.8099L701.388 119.495C701.665 119.565 701.901 120.037 701.831 120.314C701.762 120.592 701.29 120.827 701.012 120.758L432.581 36.0727C432.304 36.0032 432.068 35.5311 432.138 35.2536C432.207 34.976 432.429 34.7957 432.554 34.7681Z" fill="black"/>
<path d="M670.53 -17.9663C670.78 -18.0217 670.932 -17.9244 671.113 -17.7023C671.293 -17.4801 671.404 -16.9804 671.057 -16.7724L463.535 173.389C463.312 173.569 462.813 173.68 462.605 173.333C462.424 173.111 462.314 172.611 462.661 172.403L670.183 -17.7584C670.28 -17.911 670.405 -17.9386 670.53 -17.9663Z" fill="black"/>
<path d="M609.629 -292.814C609.754 -292.842 609.879 -292.869 610.032 -292.772L744.185 -250.416C744.462 -250.346 744.643 -250.124 744.67 -249.999L775.125 -112.576C775.18 -112.326 775.11 -112.048 774.861 -111.993L671.162 -16.9262C670.94 -16.7459 670.69 -16.6905 670.537 -16.7877L536.384 -59.1441C536.107 -59.2137 535.927 -59.4359 535.899 -59.5608L505.445 -196.984C505.389 -197.234 505.459 -197.511 505.709 -197.567L609.407 -292.634C609.379 -292.759 609.504 -292.786 609.629 -292.814ZM743.379 -249.32L609.934 -291.44L506.777 -196.886L537.065 -60.2124L670.51 -18.0924L773.667 -112.646L743.379 -249.32Z" fill="black"/>
<path d="M371.651 -240.076C371.776 -240.103 371.901 -240.131 372.054 -240.034L506.207 -197.677C506.484 -197.608 506.664 -197.386 506.692 -197.261L537.147 -59.8375C537.202 -59.5876 537.132 -59.3101 536.883 -59.2547L433.184 35.8121C432.962 35.9924 432.712 36.0478 432.559 35.9505L298.406 -6.40586C298.129 -6.47542 297.949 -6.6976 297.921 -6.82253L267.466 -144.246C267.411 -144.496 267.481 -144.773 267.73 -144.829L371.429 -239.895C371.526 -240.048 371.526 -240.048 371.651 -240.076ZM505.526 -196.609L371.956 -238.701L268.799 -144.148L299.087 -7.47416L432.532 34.6459L535.689 -59.9077L505.401 -196.581L505.526 -196.609Z" fill="black"/>
<path d="M371.653 -240.077C372.028 -240.16 372.333 -239.965 372.416 -239.591L433.298 35.1308C433.381 35.5056 433.186 35.8108 432.811 35.8939C432.437 35.9769 432.131 35.7824 432.048 35.4077L371.167 -239.314C371.084 -239.689 371.404 -240.022 371.653 -240.077Z" fill="black"/>
<path d="M407.858 1049.32C407.983 1049.29 408.108 1049.26 408.261 1049.36L542.414 1091.72C542.691 1091.78 542.871 1092.01 542.899 1092.13L573.354 1229.56C573.409 1229.8 573.339 1230.08 573.09 1230.14L469.391 1325.2C469.169 1325.39 468.919 1325.44 468.766 1325.34L334.613 1282.99C334.336 1282.92 334.156 1282.69 334.128 1282.57L303.673 1145.15C303.618 1144.9 303.688 1144.62 303.937 1144.56L407.636 1049.5C407.608 1049.37 407.733 1049.34 407.858 1049.32ZM541.608 1092.81L408.163 1050.69L305.006 1145.24L335.294 1281.92L468.739 1324.04L571.896 1229.48L541.608 1092.81Z" fill="black"/>
<path d="M407.86 1049.32C408.235 1049.23 408.54 1049.43 408.623 1049.8L469.504 1324.52C469.587 1324.9 469.393 1325.2 469.018 1325.29C468.643 1325.37 468.338 1325.18 468.255 1324.8L407.374 1050.08C407.291 1049.7 407.485 1049.4 407.86 1049.32Z" fill="black"/>
<path d="M304.037 1144.41C304.162 1144.38 304.287 1144.35 304.44 1144.45L572.871 1229.13C573.148 1229.2 573.384 1229.68 573.315 1229.95C573.245 1230.23 572.773 1230.47 572.495 1230.4L304.064 1145.71C303.787 1145.64 303.551 1145.17 303.621 1144.89C303.69 1144.62 303.788 1144.46 304.037 1144.41Z" fill="black"/>
<path d="M542.013 1091.67C542.263 1091.62 542.415 1091.72 542.596 1091.94C542.776 1092.16 542.887 1092.66 542.54 1092.87L335.018 1283.03C334.796 1283.21 334.296 1283.32 334.088 1282.97C333.908 1282.75 333.797 1282.25 334.144 1282.04L541.666 1091.88C541.763 1091.73 541.888 1091.7 542.013 1091.67Z" fill="black"/>
<path d="M481.1 816.827C481.225 816.799 481.35 816.771 481.502 816.869L615.655 859.225C615.933 859.294 616.113 859.517 616.141 859.642L646.595 997.065C646.65 997.315 646.581 997.592 646.331 997.648L542.633 1092.71C542.41 1092.89 542.161 1092.95 542.008 1092.85L407.855 1050.5C407.577 1050.43 407.397 1050.2 407.369 1050.08L376.915 912.657C376.86 912.407 376.929 912.129 377.179 912.074L480.878 817.007C480.878 817.007 480.975 816.854 481.1 816.827ZM614.85 860.321L481.404 818.201L378.247 912.755L408.536 1049.43L541.981 1091.55L645.138 996.995L614.85 860.321Z" fill="black"/>
<path d="M481.102 816.825C481.477 816.742 481.782 816.937 481.865 817.312L542.746 1092.03C542.829 1092.41 542.635 1092.71 542.26 1092.8C541.885 1092.88 541.58 1092.68 541.497 1092.31L480.643 817.713C480.56 817.339 480.727 816.908 481.102 816.825Z" fill="black"/>
<path d="M377.401 911.891C377.526 911.863 377.651 911.836 377.804 911.933L646.235 996.618C646.512 996.688 646.748 997.16 646.678 997.437C646.609 997.715 646.137 997.95 645.859 997.881L377.428 913.196C377.151 913.126 376.915 912.654 376.985 912.377C376.929 912.127 377.151 911.946 377.401 911.891Z" fill="black"/>
<path d="M615.255 859.183C615.505 859.128 615.657 859.225 615.837 859.447C616.018 859.669 616.128 860.169 615.781 860.377L408.259 1050.54C408.037 1050.72 407.537 1050.83 407.329 1050.48C407.149 1050.26 407.038 1049.76 407.386 1049.55L614.908 859.391C615.157 859.336 615.13 859.211 615.255 859.183Z" fill="black"/>
<path d="M316.495 637.048C316.619 637.021 316.744 636.993 316.897 637.09L451.05 679.447C451.327 679.516 451.508 679.738 451.535 679.863L481.99 817.287C482.045 817.536 481.976 817.814 481.726 817.869L378.027 912.936C377.805 913.116 377.555 913.172 377.403 913.074L243.25 870.718C242.972 870.649 242.792 870.426 242.764 870.301L212.31 732.878C212.254 732.628 212.324 732.351 212.574 732.295L316.272 637.229C316.272 637.229 316.37 637.076 316.495 637.048ZM450.244 680.543L316.799 638.423L213.642 732.976L243.93 869.65L377.376 911.77L480.533 817.216L450.244 680.543Z" fill="black"/>
<path d="M316.496 637.047C316.871 636.964 317.176 637.159 317.259 637.533L378.141 912.255C378.224 912.63 378.029 912.935 377.654 913.018C377.28 913.101 376.974 912.906 376.891 912.532L316.01 637.81C315.955 637.56 316.122 637.13 316.496 637.047Z" fill="black"/>
<path d="M212.669 732.138C212.794 732.11 212.919 732.083 213.072 732.18L481.503 816.865C481.78 816.935 482.016 817.407 481.946 817.684C481.877 817.962 481.405 818.197 481.127 818.128L212.696 733.443C212.419 733.373 212.183 732.901 212.253 732.624C212.322 732.346 212.419 732.194 212.669 732.138Z" fill="black"/>
<path d="M450.649 679.405C450.899 679.349 451.052 679.447 451.232 679.669C451.412 679.891 451.523 680.391 451.176 680.599L243.654 870.76C243.432 870.94 242.932 871.051 242.724 870.704C242.544 870.482 242.433 869.982 242.78 869.774L450.302 679.613C450.399 679.46 450.524 679.432 450.649 679.405Z" fill="black"/>
<path d="M389.767 404.693C389.892 404.665 390.017 404.638 390.169 404.735L524.322 447.091C524.6 447.161 524.78 447.383 524.808 447.508L555.262 584.931C555.318 585.181 555.248 585.459 554.998 585.514L451.3 680.581C451.078 680.761 450.828 680.816 450.675 680.719L316.522 638.363C316.245 638.293 316.064 638.071 316.037 637.946L285.582 500.523C285.527 500.273 285.596 499.995 285.846 499.94L389.545 404.873C389.517 404.748 389.642 404.721 389.767 404.693ZM523.517 448.187L390.072 406.067L286.914 500.621L317.203 637.294L450.648 679.414L553.805 584.861L523.517 448.187Z" fill="black"/>
<path d="M389.769 404.696C390.144 404.613 390.449 404.807 390.532 405.182L451.413 679.903C451.496 680.278 451.302 680.583 450.927 680.666C450.552 680.749 450.247 680.555 450.164 680.18L389.283 405.459C389.2 405.084 389.394 404.779 389.769 404.696Z" fill="black"/>
<path d="M286.068 499.758C286.193 499.731 286.318 499.703 286.471 499.8L554.902 584.485C555.179 584.555 555.415 585.027 555.346 585.304C555.276 585.582 554.804 585.818 554.526 585.748L286.095 501.063C285.818 500.993 285.582 500.521 285.652 500.244C285.596 499.994 285.819 499.814 286.068 499.758Z" fill="black"/>
<path d="M523.922 447.05C524.172 446.995 524.324 447.092 524.505 447.314C524.685 447.536 524.796 448.036 524.449 448.244L316.927 638.406C316.704 638.586 316.205 638.697 315.997 638.349C315.816 638.127 315.706 637.628 316.053 637.42L523.575 447.258C523.797 447.078 523.797 447.078 523.922 447.05Z" fill="black"/>
<path d="M225.16 224.902C225.284 224.874 225.409 224.847 225.562 224.944L359.715 267.3C359.993 267.37 360.173 267.592 360.2 267.717L390.655 405.14C390.71 405.39 390.641 405.667 390.391 405.723L286.692 500.79C286.47 500.97 286.22 501.025 286.068 500.928L151.915 458.572C151.637 458.502 151.457 458.28 151.429 458.155L120.975 320.732C120.919 320.482 120.989 320.204 121.239 320.149L224.937 225.082C224.91 224.957 225.035 224.93 225.16 224.902ZM358.909 268.396L225.464 226.276L122.307 320.83L152.595 457.503L286.041 499.623L389.198 405.07L358.909 268.396Z" fill="black"/>
<path d="M225.161 224.901C225.536 224.818 225.841 225.012 225.925 225.387L286.806 500.108C286.889 500.483 286.694 500.788 286.32 500.871C285.945 500.955 285.64 500.76 285.556 500.385L224.675 225.664C224.592 225.289 224.787 224.984 225.161 224.901Z" fill="black"/>
<path d="M121.339 319.993C121.464 319.965 121.589 319.937 121.741 320.035L390.172 404.72C390.45 404.789 390.685 405.261 390.616 405.539C390.546 405.816 390.074 406.052 389.797 405.982L121.366 321.297C121.088 321.228 120.853 320.756 120.922 320.478C120.964 320.076 121.089 320.048 121.339 319.993Z" fill="black"/>
<path d="M359.315 267.259C359.564 267.204 359.717 267.301 359.897 267.523C360.077 267.745 360.188 268.245 359.841 268.453L152.319 458.615C152.097 458.795 151.597 458.906 151.389 458.558C151.209 458.336 151.098 457.837 151.445 457.629L358.967 267.467C359.065 267.315 359.19 267.287 359.315 267.259Z" fill="black"/>
<path d="M298.401 -7.58445C298.526 -7.61214 298.651 -7.63981 298.804 -7.54257L432.957 34.8138C433.234 34.8834 433.414 35.1056 433.442 35.2305L463.897 172.654C463.952 172.904 463.882 173.181 463.633 173.236L359.934 268.303C359.712 268.484 359.462 268.539 359.309 268.442L225.156 226.085C224.879 226.016 224.698 225.794 224.671 225.669L194.216 88.2454C194.161 87.9956 194.231 87.7181 194.48 87.6627L298.179 -7.40415C298.151 -7.52908 298.276 -7.55677 298.401 -7.58445ZM432.151 35.9098L298.706 -6.21021L195.549 88.3434L225.837 225.017L359.282 267.137L462.439 172.583L432.151 35.9098Z" fill="black"/>
<path d="M298.403 -7.58569C298.778 -7.66874 299.083 -7.47425 299.166 -7.09946L360.048 267.622C360.131 267.997 359.936 268.302 359.561 268.385C359.187 268.468 358.881 268.274 358.798 267.899L297.917 -6.82261C297.834 -7.19741 298.029 -7.50263 298.403 -7.58569Z" fill="black"/>
<path d="M194.703 87.4809C194.828 87.4533 194.952 87.4256 195.105 87.5228L463.536 172.208C463.814 172.277 464.049 172.749 463.98 173.027C463.91 173.305 463.438 173.54 463.161 173.471L194.73 88.7856C194.452 88.716 194.216 88.244 194.286 87.9665C194.231 87.7166 194.453 87.5363 194.703 87.4809Z" fill="black"/>
<path d="M432.556 34.772C432.806 34.7166 432.959 34.8138 433.139 35.036C433.319 35.2582 433.43 35.7579 433.083 35.9659L225.561 226.127C225.339 226.307 224.839 226.418 224.631 226.071C224.451 225.849 224.34 225.349 224.687 225.141L432.209 34.9799C432.431 34.7996 432.431 34.7996 432.556 34.772Z" fill="black"/>
<path d="M133.8 -187.363C133.925 -187.39 134.05 -187.418 134.202 -187.321L268.355 -144.964C268.633 -144.895 268.813 -144.673 268.841 -144.548L299.295 -7.12459C299.351 -6.87473 299.281 -6.59719 299.031 -6.54182L195.333 88.525C195.111 88.7053 194.861 88.7607 194.708 88.6634L60.5551 46.307C60.2776 46.2375 60.0973 46.0153 60.0696 45.8904L29.6152 -91.5329C29.5598 -91.7827 29.6293 -92.0603 29.8792 -92.1156L133.578 -187.182C133.55 -187.307 133.675 -187.335 133.8 -187.363ZM267.55 -143.869L134.104 -185.989L30.9474 -91.4349L61.2358 45.2387L194.681 87.3587L297.838 -7.19486L267.55 -143.869Z" fill="black"/>
<path d="M133.802 -187.364C134.177 -187.447 134.482 -187.253 134.565 -186.878L195.446 87.8437C195.529 88.2185 195.335 88.5237 194.96 88.6068C194.585 88.6898 194.28 88.4953 194.197 88.1206L133.316 -186.601C133.233 -186.976 133.427 -187.281 133.802 -187.364Z" fill="black"/>
<path d="M29.9751 -92.272C30.1 -92.2997 30.2249 -92.3274 30.3776 -92.2301L298.808 -7.54501C299.086 -7.47545 299.322 -7.00342 299.252 -6.72586C299.183 -6.44832 298.711 -6.21266 298.433 -6.28222L30.0021 -90.9673C29.7246 -91.0369 29.4889 -91.5089 29.5585 -91.7865C29.628 -92.064 29.7253 -92.2166 29.9751 -92.272Z" fill="black"/>
<path d="M267.955 -145.006C268.205 -145.062 268.357 -144.964 268.538 -144.742C268.718 -144.52 268.829 -144.02 268.482 -143.812L60.9596 46.3489C60.7374 46.5292 60.2378 46.6399 60.0298 46.2928C59.8495 46.0706 59.7387 45.5709 60.0858 45.3629L267.608 -144.798C267.705 -144.951 267.83 -144.979 267.955 -145.006Z" fill="black"/>
<path d="M169.878 1102.06C170.003 1102.04 170.128 1102.01 170.281 1102.11L304.434 1144.46C304.711 1144.53 304.892 1144.75 304.919 1144.88L335.374 1282.3C335.429 1282.55 335.36 1282.83 335.11 1282.88L231.411 1377.95C231.189 1378.13 230.939 1378.19 230.786 1378.09L96.6335 1335.73C96.3559 1335.66 96.1757 1335.44 96.148 1335.32L65.6935 1197.89C65.6382 1197.64 65.7077 1197.37 65.9575 1197.31L169.656 1102.24C169.628 1102.12 169.753 1102.09 169.878 1102.06ZM303.628 1145.56L170.183 1103.44L67.0258 1197.99L97.3141 1334.67L230.759 1376.79L333.917 1282.23L303.628 1145.56Z" fill="black"/>
<path d="M169.88 1102.07C170.255 1101.98 170.56 1102.18 170.644 1102.55L231.525 1377.27C231.608 1377.65 231.413 1377.95 231.039 1378.04C230.664 1378.12 230.359 1377.93 230.275 1377.55L169.394 1102.83C169.311 1102.45 169.506 1102.15 169.88 1102.07Z" fill="black"/>
<path d="M243.125 869.526C243.25 869.498 243.374 869.471 243.527 869.568L377.68 911.924C377.958 911.994 378.138 912.216 378.166 912.341L408.62 1049.76C408.675 1050.01 408.606 1050.29 408.356 1050.35L304.657 1145.41C304.435 1145.59 304.185 1145.65 304.033 1145.55L169.88 1103.2C169.602 1103.13 169.422 1102.9 169.394 1102.78L138.94 965.356C138.884 965.106 138.954 964.828 139.204 964.773L242.902 869.706C242.902 869.706 243 869.554 243.125 869.526ZM376.999 912.992L243.429 870.9L140.272 965.454L170.56 1102.13L304.006 1144.25L407.163 1049.69L376.874 913.02L376.999 912.992Z" fill="black"/>
<path d="M243.127 869.525C243.501 869.442 243.807 869.636 243.89 870.011L304.771 1144.73C304.854 1145.11 304.659 1145.41 304.285 1145.5C303.91 1145.58 303.605 1145.38 303.522 1145.01L242.668 870.413C242.585 870.038 242.752 869.608 243.127 869.525Z" fill="black"/>
<path d="M139.426 964.591C139.551 964.564 139.676 964.536 139.828 964.633L408.259 1049.32C408.537 1049.39 408.772 1049.86 408.703 1050.14C408.633 1050.41 408.161 1050.65 407.884 1050.58L139.453 965.896C139.175 965.826 138.94 965.354 139.009 965.077C138.954 964.827 139.176 964.647 139.426 964.591Z" fill="black"/>
<path d="M377.406 911.853C377.656 911.798 377.808 911.895 377.989 912.117C378.169 912.339 378.28 912.839 377.933 913.047L170.411 1103.21C170.188 1103.39 169.689 1103.5 169.481 1103.15C169.3 1102.93 169.19 1102.43 169.537 1102.22L377.059 912.061C377.184 912.033 377.281 911.881 377.406 911.853Z" fill="black"/>
<path d="M78.525 689.786C78.6499 689.758 78.7748 689.73 78.9274 689.828L213.08 732.184C213.358 732.253 213.538 732.476 213.566 732.601L244.02 870.024C244.076 870.274 244.006 870.551 243.756 870.607L140.058 965.673C139.836 965.854 139.586 965.909 139.433 965.812L5.28018 923.455C5.00265 923.386 4.82238 923.164 4.79469 923.039L-25.6597 785.616C-25.7151 785.366 -25.6456 785.088 -25.3957 785.033L78.3028 689.966C78.3028 689.966 78.4001 689.813 78.525 689.786ZM212.275 733.28L78.8296 691.16L-24.3275 785.713L5.96084 922.387L139.406 964.507L242.563 869.953L212.275 733.28Z" fill="black"/>
<path d="M78.5267 689.784C78.9015 689.701 79.2067 689.896 79.2897 690.271L140.171 964.992C140.254 965.367 140.06 965.672 139.685 965.755C139.31 965.838 139.005 965.644 138.922 965.269L78.0405 690.548C77.9852 690.298 78.1519 689.867 78.5267 689.784Z" fill="black"/>
<path d="M-25.174 784.851C-25.049 784.823 -24.9241 784.796 -24.7715 784.893L243.659 869.578C243.937 869.648 244.173 870.12 244.103 870.397C244.034 870.675 243.562 870.91 243.284 870.841L-25.147 786.156C-25.4245 786.086 -25.6601 785.614 -25.5906 785.337C-25.646 785.087 -25.4238 784.906 -25.174 784.851Z" fill="black"/>
<path d="M212.68 732.143C212.93 732.088 213.082 732.185 213.263 732.407C213.443 732.629 213.554 733.129 213.207 733.337L5.68462 923.498C5.46246 923.679 4.96276 923.789 4.75478 923.442C4.57448 923.22 4.46375 922.72 4.81083 922.512L212.333 732.351C212.555 732.171 212.555 732.171 212.68 732.143Z" fill="black"/>
<path d="M151.786 457.418C151.911 457.391 152.036 457.363 152.188 457.46L286.341 499.817C286.619 499.886 286.799 500.109 286.827 500.233L317.281 637.657C317.337 637.907 317.267 638.184 317.017 638.239L213.319 733.306C213.097 733.487 212.847 733.542 212.694 733.445L78.5411 691.088C78.2635 691.019 78.0832 690.797 78.0556 690.672L47.6011 553.248C47.5458 552.999 47.6153 552.721 47.8651 552.666L151.564 457.599C151.536 457.474 151.661 457.446 151.786 457.418ZM285.661 500.885L152.215 458.765L49.0583 553.319L79.3466 689.992L212.792 732.112L315.949 637.559L285.661 500.885Z" fill="black"/>
<path d="M151.788 457.422C152.163 457.339 152.468 457.534 152.551 457.908L213.432 732.63C213.515 733.005 213.321 733.31 212.946 733.393C212.571 733.476 212.266 733.282 212.183 732.907L151.302 458.185C151.219 457.81 151.413 457.505 151.788 457.422Z" fill="black"/>
<path d="M48.0873 552.484C48.2122 552.456 48.3371 552.428 48.4897 552.526L316.921 637.211C317.198 637.28 317.434 637.752 317.364 638.03C317.295 638.308 316.823 638.543 316.545 638.474L48.1143 553.789C47.8368 553.719 47.6011 553.247 47.6706 552.969C47.6153 552.72 47.8375 552.539 48.0873 552.484Z" fill="black"/>
<path d="M286.067 499.75C286.317 499.695 286.469 499.792 286.65 500.015C286.83 500.237 286.941 500.736 286.594 500.944L79.0717 691.106C78.8495 691.286 78.3499 691.397 78.1419 691.05C77.9616 690.827 77.8508 690.328 78.1979 690.12L285.72 499.958C285.817 499.806 285.942 499.778 286.067 499.75Z" fill="black"/>
<path d="M-12.8162 277.648C-12.6912 277.62 -12.5663 277.593 -12.4137 277.69L121.739 320.046C122.017 320.116 122.197 320.338 122.225 320.463L152.679 457.886C152.735 458.136 152.665 458.414 152.415 458.469L48.7166 553.536C48.4945 553.716 48.2446 553.771 48.092 553.674L-86.061 511.318C-86.3385 511.248 -86.5188 511.026 -86.5465 510.901L-117.001 373.478C-117.056 373.228 -116.987 372.95 -116.737 372.895L-13.0383 277.828C-13.066 277.703 -12.9411 277.676 -12.8162 277.648ZM120.934 321.142L-12.5116 279.022L-115.669 373.576L-85.3803 510.249L48.065 552.37L151.222 457.816L120.934 321.142Z" fill="black"/>
<path d="M-12.8141 277.651C-12.4393 277.568 -12.1341 277.762 -12.0511 278.137L48.8301 552.858C48.9132 553.233 48.7187 553.538 48.3439 553.621C47.9692 553.705 47.664 553.51 47.5809 553.135L-13.3003 278.414C-13.3833 278.039 -13.1889 277.734 -12.8141 277.651Z" fill="black"/>
<path d="M-116.515 372.712C-116.39 372.685 -116.265 372.657 -116.112 372.754L152.319 457.439C152.596 457.509 152.832 457.981 152.762 458.258C152.693 458.536 152.221 458.772 151.943 458.702L-116.488 374.017C-116.765 373.947 -117.001 373.475 -116.931 373.198C-117.014 372.823 -116.765 372.768 -116.515 372.712Z" fill="black"/>
<path d="M121.339 320.004C121.589 319.949 121.741 320.046 121.922 320.268C122.102 320.491 122.213 320.99 121.865 321.198L-85.6566 511.36C-85.8787 511.54 -86.3784 511.651 -86.5864 511.304C-86.7667 511.081 -86.8774 510.582 -86.5303 510.374L120.992 320.212C121.214 320.032 121.214 320.032 121.339 320.004Z" fill="black"/>
<path d="M60.4254 45.1529C60.5503 45.1252 60.6752 45.0975 60.8278 45.1947L194.981 87.5511C195.258 87.6207 195.439 87.8429 195.466 87.9678L225.921 225.391C225.976 225.641 225.907 225.918 225.657 225.974L121.958 321.041C121.736 321.221 121.486 321.276 121.334 321.179L-12.8194 278.823C-13.0969 278.753 -13.2772 278.531 -13.3049 278.406L-43.7594 140.983C-43.8147 140.733 -43.7452 140.455 -43.4953 140.4L60.2032 45.3332C60.1756 45.2082 60.3005 45.1805 60.4254 45.1529ZM194.3 88.6194L60.8548 46.4994L-42.3022 141.053L-12.0139 277.727L121.431 319.847L224.589 225.293L194.3 88.6194Z" fill="black"/>
<path d="M60.4275 45.1565C60.8022 45.0734 61.1074 45.2679 61.1905 45.6427L122.072 320.364C122.155 320.739 121.96 321.044 121.586 321.127C121.211 321.21 120.906 321.016 120.822 320.641L59.9413 45.9196C59.8582 45.5448 60.0527 45.2396 60.4275 45.1565Z" fill="black"/>
<path d="M-43.2732 140.222C-43.1483 140.194 -43.0233 140.167 -42.8707 140.264L225.56 224.949C225.838 225.019 226.073 225.491 226.004 225.768C225.934 226.046 225.462 226.281 225.185 226.212L-43.2462 141.527C-43.5237 141.457 -43.7594 140.985 -43.6898 140.708C-43.7452 140.458 -43.523 140.278 -43.2732 140.222Z" fill="black"/>
<path d="M194.702 87.4848C194.952 87.4295 195.105 87.5267 195.285 87.7489C195.465 87.9711 195.576 88.4708 195.229 88.6788L-12.2931 278.84C-12.5152 279.02 -13.0149 279.131 -13.2229 278.784C-13.4032 278.562 -13.5139 278.062 -13.1668 277.854L194.355 87.6928C194.452 87.5402 194.577 87.5125 194.702 87.4848Z" fill="black"/>
<path d="M-104.182 -134.63C-104.057 -134.658 -103.932 -134.686 -103.78 -134.588L30.3733 -92.2321C30.6508 -92.1625 30.8311 -91.9403 30.8588 -91.8154L61.3132 45.6078C61.3686 45.8577 61.2991 46.1352 61.0492 46.1906L-42.6493 141.257C-42.8715 141.438 -43.1213 141.493 -43.2739 141.396L-177.427 99.0394C-177.704 98.9699 -177.885 98.7477 -177.912 98.6228L-208.367 -38.8005C-208.422 -39.0503 -208.353 -39.3279 -208.103 -39.3832L-104.404 -134.45C-104.432 -134.575 -104.307 -134.603 -104.182 -134.63ZM29.5678 -91.1361L-103.878 -133.256L-207.035 -38.7025L-176.746 97.9712L-43.3009 140.091L59.8561 45.5376L29.5678 -91.1361Z" fill="black"/>
<path d="M-207.881 -39.565C-207.756 -39.5926 -207.631 -39.6203 -207.478 -39.5231L60.9526 45.162C61.2302 45.2316 61.4658 45.7036 61.3963 45.9812C61.3267 46.2587 60.8547 46.4944 60.5772 46.4248L-207.854 -38.2603C-208.131 -38.3298 -208.367 -38.8019 -208.297 -39.0794C-208.353 -39.3293 -208.131 -39.5096 -207.881 -39.565Z" fill="black"/>
<path d="M29.9729 -92.273C30.2227 -92.3283 30.3753 -92.2311 30.5556 -92.0089C30.7359 -91.7867 30.8466 -91.287 30.4995 -91.079L-177.023 99.0823C-177.245 99.2626 -177.744 99.3733 -177.952 99.0262C-178.133 98.804 -178.243 98.3043 -177.896 98.0963L29.6257 -92.065C29.8479 -92.2453 29.8479 -92.2453 29.9729 -92.273Z" fill="black"/>
<path d="M5.2683 922.277C5.39323 922.249 5.51813 922.221 5.67073 922.319L139.824 964.675C140.101 964.745 140.282 964.967 140.309 965.092L170.764 1102.52C170.819 1102.76 170.75 1103.04 170.5 1103.1L66.8011 1198.16C66.579 1198.34 66.3291 1198.4 66.1765 1198.3L-67.9765 1155.95C-68.254 1155.88 -68.4343 1155.65 -68.462 1155.53L-98.9165 1018.11C-98.9718 1017.86 -98.9023 1017.58 -98.6524 1017.52L5.04612 922.457C5.04612 922.457 5.14338 922.305 5.2683 922.277ZM139.018 965.771L5.57284 923.651L-97.5842 1018.2L-67.2959 1154.88L66.1495 1197L169.307 1102.44L139.018 965.771Z" fill="black"/>
<path d="M5.2696 922.274C5.64436 922.191 5.94958 922.386 6.03264 922.76L66.9138 1197.48C66.9969 1197.86 66.8024 1198.16 66.4276 1198.24C66.0529 1198.33 65.7477 1198.13 65.6646 1197.76L4.8111 923.162C4.60312 922.815 4.89483 922.357 5.2696 922.274Z" fill="black"/>
<path d="M-98.5521 1017.37C-98.4272 1017.34 -98.3023 1017.31 -98.1497 1017.41L170.281 1102.09C170.559 1102.16 170.794 1102.64 170.725 1102.91C170.655 1103.19 170.183 1103.43 169.906 1103.36L-98.5251 1018.67C-98.8026 1018.6 -99.0383 1018.13 -98.9688 1017.85C-98.8992 1017.58 -98.802 1017.42 -98.5521 1017.37Z" fill="black"/>
<path d="M139.424 964.634C139.673 964.579 139.826 964.676 140.006 964.898C140.187 965.12 140.297 965.62 139.95 965.828L-67.5719 1155.99C-67.794 1156.17 -68.2937 1156.28 -68.5017 1155.93C-68.682 1155.71 -68.7927 1155.21 -68.4457 1155L139.076 964.842C139.201 964.815 139.299 964.662 139.424 964.634Z" fill="black"/>
<path d="M-159.453 742.486C-159.329 742.458 -159.204 742.43 -159.051 742.528L-24.8981 784.884C-24.6205 784.954 -24.4402 785.176 -24.4126 785.301L6.04188 922.724C6.09725 922.974 6.02771 923.251 5.77787 923.307L-97.9207 1018.37C-98.1429 1018.55 -98.3927 1018.61 -98.5453 1018.51L-232.698 976.156C-232.976 976.086 -233.156 975.864 -233.184 975.739L-263.638 838.316C-263.694 838.066 -263.624 837.788 -263.374 837.733L-159.676 742.666C-159.676 742.666 -159.578 742.514 -159.453 742.486ZM-25.7037 785.98L-159.149 743.86L-262.306 838.414L-232.018 975.087L-98.5723 1017.21L4.58466 922.654L-25.7037 785.98Z" fill="black"/>
<path d="M-263.148 837.551C-263.023 837.524 -262.898 837.496 -262.746 837.593L5.68542 922.278C5.96295 922.348 6.19862 922.82 6.12908 923.097C6.05952 923.375 5.58751 923.611 5.30998 923.541L-263.121 838.856C-263.398 838.786 -263.634 838.314 -263.565 838.037C-263.62 837.787 -263.398 837.607 -263.148 837.551Z" fill="black"/>
<path d="M-25.1722 784.813C-24.9223 784.758 -24.7697 784.855 -24.5894 785.077C-24.4092 785.299 -24.2984 785.799 -24.6455 786.007L-232.168 976.168C-232.39 976.349 -232.889 976.459 -233.097 976.112C-233.278 975.89 -233.388 975.39 -233.041 975.182L-25.5192 785.021C-25.422 784.868 -25.2971 784.841 -25.1722 784.813Z" fill="black"/>
<path d="M-86.0663 510.135C-85.9414 510.108 -85.8165 510.08 -85.6639 510.177L48.4892 552.534C48.7667 552.603 48.947 552.825 48.9747 552.95L79.4291 690.373C79.4845 690.623 79.4149 690.901 79.1651 690.956L-24.5335 786.023C-24.7556 786.203 -25.0055 786.259 -25.1581 786.162L-159.311 743.805C-159.589 743.736 -159.769 743.513 -159.797 743.388L-190.251 605.965C-190.306 605.715 -190.237 605.438 -189.987 605.382L-86.2885 510.316C-86.3161 510.191 -86.1912 510.163 -86.0663 510.135ZM47.6836 553.63L-85.7617 511.51L-188.919 606.063L-158.63 742.737L-25.1851 784.857L77.9719 690.303L47.6836 553.63Z" fill="black"/>
<path d="M-189.887 605.23C-189.762 605.202 -189.637 605.175 -189.485 605.272L78.9464 689.957C79.2239 690.026 79.4596 690.499 79.3901 690.776C79.3205 691.054 78.8485 691.289 78.571 691.22L-189.888 606.41C-190.165 606.34 -190.401 605.868 -190.331 605.591C-190.234 605.438 -190.137 605.285 -189.887 605.23Z" fill="black"/>
<path d="M48.0887 552.493C48.3385 552.437 48.4911 552.535 48.6714 552.757C48.8517 552.979 48.9624 553.479 48.6154 553.687L-158.907 743.848C-159.129 744.028 -159.629 744.139 -159.837 743.792C-160.017 743.57 -160.128 743.07 -159.781 742.862L47.7416 552.701C47.8388 552.548 47.9638 552.52 48.0887 552.493Z" fill="black"/>
<path d="M-177.43 97.8609C-177.305 97.8332 -177.18 97.8055 -177.028 97.9027L-42.8746 140.259C-42.5971 140.329 -42.4168 140.551 -42.3891 140.676L-11.9347 278.099C-11.8793 278.349 -11.9488 278.626 -12.1987 278.682L-115.897 373.749C-116.119 373.929 -116.369 373.984 -116.522 373.887L-250.675 331.531C-250.952 331.461 -251.133 331.239 -251.16 331.114L-281.615 193.691C-281.67 193.441 -281.601 193.163 -281.351 193.108L-177.652 98.0412C-177.68 97.9162 -177.555 97.8885 -177.43 97.8609ZM-43.6802 141.355L-177.126 99.2351L-280.283 193.789L-249.994 330.462L-116.549 372.582L-13.3918 278.029L-43.6802 141.355Z" fill="black"/>
</g>
<mask id="mask2_210_1168" style="mask-type:luminance" maskUnits="userSpaceOnUse" x="-476" y="-363" width="2561" height="1901">
<path d="M-164.375 1537.04L2084.22 1038.73L1773.59 -362.989L-475.011 135.324L-164.375 1537.04Z" fill="white"/>
</mask>
<g mask="url(#mask2_210_1168)">
<path d="M926.212 1200.25L835.186 1171.54L905.559 1107.06L926.212 1200.25Z" fill="#333333"/>
<path d="M1164.19 1147.52L1073.16 1118.81L1143.54 1054.32L1164.19 1147.52Z" fill="#333333"/>
<path d="M952.201 1194.5L1022.57 1130.01L931.547 1101.3L952.201 1194.5Z" fill="#333333"/>
<path d="M1402.03 1094.81L1311.13 1066.06L1381.38 1001.61L1402.03 1094.81Z" fill="#333333"/>
<path d="M1190.16 1141.76L1260.41 1077.3L1169.51 1048.56L1190.16 1141.76Z" fill="#333333"/>
<path d="M1640.01 1042.07L1548.98 1013.35L1619.35 948.871L1640.01 1042.07Z" fill="#333333"/>
<path d="M1428.01 1089.05L1498.39 1024.57L1407.36 995.851L1428.01 1089.05Z" fill="#333333"/>
<path d="M886.145 1055.52L812.325 1032.3L869.423 980.065L886.145 1055.52Z" fill="#666666"/>
<path d="M1123.99 1002.81L1050.3 979.563L1107.27 927.355L1123.99 1002.81Z" fill="#969696"/>
<path d="M927.37 1046.39L984.343 994.18L910.648 970.93L927.37 1046.39Z" fill="#969696"/>
<path d="M672.797 1023.64L746.492 1046.89L689.519 1099.1L672.797 1023.64Z" fill="#666666"/>
<path d="M631.447 1032.81L574.474 1085.01L648.17 1108.26L631.447 1032.81Z" fill="#969696"/>
<path d="M1361.96 950.079L1288.27 926.829L1345.24 874.621L1361.96 950.079Z" fill="#969696"/>
<path d="M1165.34 993.649L1222.31 941.442L1148.61 918.191L1165.34 993.649Z" fill="#666666"/>
<path d="M1403.31 940.911L1460.28 888.703L1386.59 865.453L1403.31 940.911Z" fill="#666666"/>
<path d="M660.332 953.792L706.516 911.446L646.794 892.701L660.332 953.792Z" fill="#969696"/>
<path d="M851.085 911.52L791.335 892.65L837.546 850.429L851.085 911.52Z" fill="#969696"/>
<path d="M898.305 901.055L944.364 858.737L884.767 839.964L898.305 901.055Z" fill="#C9C9C9"/>
<path d="M1089.06 858.782L1029.31 839.912L1075.52 797.691L1089.06 858.782Z" fill="#969696"/>
<path d="M1136.27 848.316L1182.33 805.998L1122.73 787.226L1136.27 848.316Z" fill="#C9C9C9"/>
<path d="M1327.03 806.043L1267.28 787.173L1313.49 744.952L1327.03 806.043Z" fill="#969696"/>
<path d="M1374.13 795.604L1420.31 753.258L1360.59 734.513L1374.13 795.604Z" fill="#969696"/>
<path d="M1564.88 753.334L1505.25 734.436L1551.34 692.243L1564.88 753.334Z" fill="#C9C9C9"/>
<path d="M1612.1 742.869L1658.29 700.523L1598.57 681.778L1612.1 742.869Z" fill="#969696"/>
<path d="M1802.86 700.597L1743.11 681.727L1789.32 639.506L1802.86 700.597Z" fill="#969696"/>
<path d="M634.188 803.882L663.279 777.251L625.634 765.278L634.188 803.882Z" fill="#969696"/>
<path d="M811.451 764.597L773.833 752.749L802.896 725.993L811.451 764.597Z" fill="#C9C9C9"/>
<path d="M872.162 751.144L901.252 724.513L863.607 712.54L872.162 751.144Z" fill="#969696"/>
<path d="M1049.55 711.829L1011.93 699.981L1041 673.226L1049.55 711.829Z" fill="#C9C9C9"/>
<path d="M1110.13 698.406L1139.22 671.775L1101.57 659.803L1110.13 698.406Z" fill="#969696"/>
<path d="M1287.52 659.092L1249.9 647.244L1278.96 620.488L1287.52 659.092Z" fill="#C9C9C9"/>
<path d="M1348.23 645.639L1377.32 619.008L1339.68 607.035L1348.23 645.639Z" fill="#C9C9C9"/>
<path d="M1525.49 606.353L1487.88 594.506L1516.94 567.75L1525.49 606.353Z" fill="#969696"/>
<path d="M1586.2 592.9L1615.29 566.269L1577.65 554.297L1586.2 592.9Z" fill="#C9C9C9"/>
<path d="M1763.47 553.619L1725.85 541.771L1754.91 515.016L1763.47 553.619Z" fill="#C9C9C9"/>
<path d="M605.838 655.248L620.446 641.919L601.575 636.009L605.838 655.248Z" fill="#E3E3E3"/>
<path d="M843.811 602.506L858.419 589.177L839.548 583.267L843.811 602.506Z" fill="#E3E3E3"/>
<path d="M1012.21 565.188L993.46 559.25L1007.94 545.949L1012.21 565.188Z" fill="#E3E3E3"/>
<path d="M1081.9 549.742L1096.38 536.441L1077.63 530.503L1081.9 549.742Z" fill="white"/>
<path d="M1319.87 497.004L1334.35 483.702L1315.61 477.765L1319.87 497.004Z" fill="#E3E3E3"/>
<path d="M1488.15 459.712L1469.4 453.774L1483.88 440.472L1488.15 459.712Z" fill="#E3E3E3"/>
<path d="M1726.12 406.973L1707.38 401.036L1721.86 387.734L1726.12 406.973Z" fill="#E3E3E3"/>
<path d="M1665.99 1036.31L1736.36 971.828L1645.34 943.113L1665.99 1036.31Z" fill="#333333"/>
<path d="M1670.49 1179.62L1579.46 1150.9L1649.81 1086.3L1670.49 1179.62Z" fill="#333333"/>
<path d="M1458.5 1226.59L1528.87 1162.11L1437.81 1133.27L1458.5 1226.59Z" fill="#333333"/>
<path d="M1696.47 1173.86L1766.85 1109.37L1675.79 1080.53L1696.47 1173.86Z" fill="#333333"/>
<path d="M1599.97 897.462L1526.27 874.212L1583.24 822.005L1599.97 897.462Z" fill="#666666"/>
<path d="M1837.82 844.75L1764.12 821.499L1821.1 769.292L1837.82 844.75Z" fill="#969696"/>
<path d="M1641.31 888.299L1698.28 836.091L1624.59 812.841L1641.31 888.299Z" fill="#666666"/>
<path d="M434.849 1076.51L508.544 1099.76L451.571 1151.96L434.849 1076.51Z" fill="#969696"/>
<path d="M196.875 1129.24L270.57 1152.49L213.597 1204.7L196.875 1129.24Z" fill="#969696"/>
<path d="M393.499 1085.67L336.526 1137.87L410.221 1161.12L393.499 1085.67Z" fill="#666666"/>
<path d="M1024.94 1101.7L943.063 1075.81L1006.34 1017.75L1024.94 1101.7Z" fill="#333333"/>
<path d="M985.847 957.803L919.479 936.861L970.786 889.841L985.847 957.803Z" fill="#969696"/>
<path d="M1059.05 1094.14L1122.33 1036.08L1040.44 1010.19L1059.05 1094.14Z" fill="#4D4D4D"/>
<path d="M1033.69 947.203L1085 900.183L1018.63 879.241L1033.69 947.203Z" fill="#666666"/>
<path d="M1262.91 1048.96L1181.03 1023.07L1244.3 965.01L1262.91 1048.96Z" fill="#333333"/>
<path d="M1298.39 1190.12L1207.36 1161.41L1277.73 1096.92L1298.39 1190.12Z" fill="#333333"/>
<path d="M1223.69 905.092L1157.44 884.123L1208.63 837.13L1223.69 905.092Z" fill="#666666"/>
<path d="M1296.89 1041.43L1360.29 983.346L1278.29 957.481L1296.89 1041.43Z" fill="#4D4D4D"/>
<path d="M1324.37 1184.36L1394.74 1119.88L1303.72 1091.17L1324.37 1184.36Z" fill="#333333"/>
<path d="M1271.66 894.461L1322.84 847.468L1256.6 826.499L1271.66 894.461Z" fill="#C9C9C9"/>
<path d="M1500.77 996.25L1418.88 970.358L1482.16 912.297L1500.77 996.25Z" fill="#333333"/>
<path d="M1536.37 1137.38L1445.34 1108.67L1515.72 1044.19L1536.37 1137.38Z" fill="#333333"/>
<path d="M1461.67 852.355L1395.3 831.414L1446.61 784.393L1461.67 852.355Z" fill="#666666"/>
<path d="M1534.87 988.697L1598.14 930.636L1516.26 904.744L1534.87 988.697Z" fill="#969696"/>
<path d="M583.094 1199.62L646.371 1141.56L564.489 1115.67L583.094 1199.62Z" fill="#969696"/>
<path d="M1562.34 1131.63L1632.72 1067.15L1541.69 1038.43L1562.34 1131.63Z" fill="#333333"/>
<path d="M1509.51 841.753L1560.82 794.733L1494.45 773.791L1509.51 841.753Z" fill="#969696"/>
<path d="M1738.74 943.512L1656.86 917.62L1720.13 859.559L1738.74 943.512Z" fill="#333333"/>
<path d="M1774.22 1084.67L1683.32 1055.93L1753.56 991.476L1774.22 1084.67Z" fill="#333333"/>
<path d="M1699.64 799.618L1633.27 778.676L1684.58 731.656L1699.64 799.618Z" fill="#666666"/>
<path d="M1772.84 935.954L1836.12 877.893L1754.24 852.001L1772.84 935.954Z" fill="#4D4D4D"/>
<path d="M1747.49 789.019L1798.79 741.998L1732.43 721.057L1747.49 789.019Z" fill="#C9C9C9"/>
<path d="M786.967 1154.44L705.085 1128.55L768.362 1070.49L786.967 1154.44Z" fill="#969696"/>
<path d="M747.874 1010.54L681.505 989.599L732.813 942.579L747.874 1010.54Z" fill="#C9C9C9"/>
<path d="M671.295 713.476L652.548 707.539L667.031 694.237L671.295 713.476Z" fill="#C9C9C9"/>
<path d="M739.627 698.338L754.11 685.036L735.364 679.099L739.627 698.338Z" fill="#C9C9C9"/>
<path d="M977.478 645.625L992.086 632.296L973.215 626.386L977.478 645.625Z" fill="#C9C9C9"/>
<path d="M1215.44 592.891L1230.05 579.561L1211.18 573.651L1215.44 592.891Z" fill="#C9C9C9"/>
<path d="M1385.21 555.264L1366.34 549.354L1380.95 536.025L1385.21 555.264Z" fill="#C9C9C9"/>
<path d="M1623.06 502.553L1604.31 496.616L1618.8 483.314L1623.06 502.553Z" fill="#C9C9C9"/>
<path d="M59.8029 776.251L40.9315 770.341L55.5392 757.012L59.8029 776.251Z" fill="#E3E3E3"/>
<path d="M297.776 723.513L278.905 717.603L293.513 704.274L297.776 723.513Z" fill="#E3E3E3"/>
<path d="M367.36 708.095L381.968 694.765L363.096 688.855L367.36 708.095Z" fill="#E3E3E3"/>
<path d="M535.754 670.776L516.883 664.866L531.49 651.536L535.754 670.776Z" fill="#E3E3E3"/>
<path d="M194.717 819.095L175.97 813.158L190.453 799.856L194.717 819.095Z" fill="#C9C9C9"/>
<path d="M500.896 751.244L515.379 737.943L496.633 732.005L500.896 751.244Z" fill="#C9C9C9"/>
<path d="M821.076 1146.88L884.353 1088.82L802.471 1062.93L821.076 1146.88Z" fill="#333333"/>
<path d="M795.715 999.941L847.023 952.921L780.654 931.979L795.715 999.941Z" fill="#666666"/>
<path d="M302.953 1037.84L369.169 1058.68L318.014 1105.8L302.953 1037.84Z" fill="#969696"/>
<path d="M259.109 1047.56L207.773 1094.45L274.17 1115.52L259.109 1047.56Z" fill="#666666"/>
<path d="M64.9752 1090.58L131.316 1111.39L80.0363 1158.54L64.9752 1090.58Z" fill="#666666"/>
<path d="M21.7552 1100.16L-29.4553 1147.02L36.8163 1168.12L21.7552 1100.16Z" fill="#C9C9C9"/>
<path d="M542.681 984.718L609.022 1005.53L557.742 1052.68L542.681 984.718Z" fill="#C9C9C9"/>
<path d="M494.837 995.32L443.626 1042.19L509.898 1063.28L494.837 995.32Z" fill="#666666"/>
<path d="M764.323 855.911L805.8 817.753L752.114 800.816L764.323 855.911Z" fill="#969696"/>
<path d="M715.606 866.705L661.767 849.671L703.396 811.611L715.606 866.705Z" fill="white"/>
<path d="M1002.17 803.202L1043.78 765.017L989.965 748.107L1002.17 803.202Z" fill="#969696"/>
<path d="M953.454 813.995L899.74 796.933L941.245 758.901L953.454 813.995Z" fill="white"/>
<path d="M1240.14 750.459L1281.62 712.302L1227.93 695.365L1240.14 750.459Z" fill="white"/>
<path d="M1191.42 761.256L1137.7 744.195L1179.21 706.162L1191.42 761.256Z" fill="#969696"/>
<path d="M1478.12 697.721L1519.59 659.564L1465.91 642.627L1478.12 697.721Z" fill="#969696"/>
<path d="M1429.4 708.523L1375.68 691.461L1417.19 653.429L1429.4 708.523Z" fill="white"/>
<path d="M137.283 1069.7L77.5328 1050.83L123.744 1008.61L137.283 1069.7Z" fill="#969696"/>
<path d="M184.503 1059.24L230.562 1016.92L170.965 998.148L184.503 1059.24Z" fill="#969696"/>
<path d="M97.7707 922.756L60.1529 910.908L89.2158 884.152L97.7707 922.756Z" fill="#C9C9C9"/>
<path d="M158.482 909.304L187.572 882.673L149.927 870.7L158.482 909.304Z" fill="#C9C9C9"/>
<path d="M50.3949 1014.12L91.9966 975.94L38.1854 959.03L50.3949 1014.12Z" fill="white"/>
<path d="M1.67402 1024.92L-52.0398 1007.86L-10.5354 969.827L1.67402 1024.92Z" fill="#969696"/>
<path d="M239.652 972.184L185.938 955.122L227.442 917.09L239.652 972.184Z" fill="white"/>
<path d="M1715.97 645.017L1757.57 606.832L1703.76 589.923L1715.97 645.017Z" fill="#969696"/>
<path d="M1667.37 655.783L1613.53 638.748L1655.16 600.688L1667.37 655.783Z" fill="white"/>
<path d="M375.884 1016.83L316.259 997.932L362.346 955.739L375.884 1016.83Z" fill="#C9C9C9"/>
<path d="M423.103 1006.37L469.287 964.02L409.565 945.275L423.103 1006.37Z" fill="#969696"/>
<path d="M613.861 964.089L554.111 945.219L600.322 902.998L613.861 964.089Z" fill="#969696"/>
<path d="M336.501 869.854L298.884 858.007L327.946 831.251L336.501 869.854Z" fill="#969696"/>
<path d="M397.212 856.397L426.303 829.766L388.657 817.794L397.212 856.397Z" fill="#C9C9C9"/>
<path d="M574.472 817.115L536.979 805.239L565.917 778.511L574.472 817.115Z" fill="#C9C9C9"/>
<path d="M289.117 961.222L330.594 923.065L276.908 906.128L289.117 961.222Z" fill="#969696"/>
<path d="M527.099 908.484L568.576 870.327L514.89 853.39L527.099 908.484Z" fill="#969696"/>
<path d="M478.377 919.275L424.538 902.241L466.168 864.181L478.377 919.275Z" fill="white"/>
</g>
</mask>
<g mask="url(#mask0_210_1168)">
<rect x="-0.00012207" y="0.00195312" width="1775.14" height="1117" fill="#132436"/>
</g>
</g>
</g>
<defs>
<clipPath id="clip0_210_1168">
<rect width="1775.14" height="1117" rx="30.1601" fill="white"/>
</clipPath>
</defs>
</svg>
